<svg xmlns="http://www.w3.org/2000/svg" xmlns:xlink="http://www.w3.org/1999/xlink" viewBox="0 0 143 149"><defs><path id="c" fill="#0A5A90" d="M-8.95-2.55q-2.6-2.6-6.3-2.6-3.7 0-6.3 2.6-2.6 2.6-2.6 6.3 0 3.7 2.6 6.3 2.6 2.6 6.3 2.6 3.7 0 6.3-2.6 2.6-2.6 2.6-6.3 0-3.7-2.6-6.3m44.65-11.5q-2.35 2.35-2.35 5.65 0 3.3 2.35 5.65Q38.05-.4 41.35-.4q3.3 0 5.65-2.35 2.35-2.35 2.35-5.65 0-3.3-2.35-5.65-2.35-2.35-5.65-2.35-3.3 0-5.65 2.35Z"/><path id="d" fill="#6598FD" d="M39.35-3.7Q22.452-19.495 6.85-19.9q-15.557-.414-24 11.1-8.443 11.564-2 22.75 6.498 11.195 56.05-1.4Q45.55 2.1 39.35-3.7Z"/><path id="f" fill="#69F" d="M35.45 13.1Q39.75.95 27.8-6.7 3.9-22-16.5-18.4q-9 1.6-21.6 20.15-4.6 6.75 2.35 15.65 49.1 6.1 71.2-4.3Z"/><path id="b" fill="none" stroke="#0A5A90" stroke-linecap="butt" stroke-linejoin="round" stroke-width="6" d="M3.3-91.8q3.85-7.45 7.4-12 5.6-7.15 12.05-9.7 12.3-4.9 21.6-4.7 10.35.15 18.3 6.55 9.5 7.55 14.3 18.3 4.15 9.25 5.5 22.5.75 7.5-.05 14.6 25.35 27.4 25.35 64.65 0 41.55-31.55 70.9-2.998 2.797-6.125 5.325Q67 87.118 63.8 89.35M-1.7-91.85Q-.1-90 1.4-88.1q.95-1.95 1.9-3.7-1.65-.05-3.3-.05h-1.7q-4.9-5.5-10.75-10.15-19.75-15.65-39.9-3.5Q-73.3-93-74.45-68.45q-.1 2.25-.05 4.4.012.74.05 1.475.784 20.458 14.25 36.675 8 9.65 19.8 13.6Q-17.5-4.55 5.05-14q9.75-13.45 9.3-30.2Q13.7-67.8 1.4-88.1m24.9 68.05h2.25q11.05 0 18.85 7.8.35.35.7.75-5.65-6.9-14.55-8.3-3.45-.55-7.25-.25-7.15.55-15.65 4.1-2.75 1.1-5.6 1.95m4-2.15q5.2-2.8 9.9-3.5 2.1-.35 7.35-.4M51-7.85q.006.009 0 .025 1.654 2.435 2.65 5.175.2.5.35 1 1.25 3.9 1.25 8.3 0 .63-.025 1.25-.073 1.768-.35 3.45-1.35 8.064-7.475 14.15-3 3-6.45 4.85-1.75.95-3.6 1.6-4.1 1.4-8.8 1.4-11.05 0-18.9-7.85-1.1-1.1-2.05-2.3-4.8-4.55-11.2-7.95-12.75-6.75-20.7-1.05M51-7.85q-.1.05-.25.15-1.2-2.1-2.65-3.8 1.65 1.75 2.9 3.65 7.15-4.45 10.95-7.85 4.45-4 8.85-10.45 9.8-14.05 11.6-30.1M-54.35 90.8q-26.05-14.95-32.9-23.55-7.55-9.4-12.3-20.3-4.8-10.9-6.75-22.45-1.95-11.9-1.1-23.7.85-11.2 4.3-21.7 3.05-9.35 8-17.75 6.1-10.3 14.35-18.85 3.1-3.3 6.25-6.55"/><path id="e" fill="none" stroke="#0A5A90" stroke-linecap="butt" stroke-linejoin="round" stroke-width="6" d="M-19.125 13.95Q-25.593 2.764-17.15-8.775-8.707-20.315 6.875-19.9q15.577.405 32.475 16.2 6.2 5.8-2.45 16.25-49.552 12.595-56.025 1.4Z"/><path id="g" fill="none" stroke="#0A5A90" stroke-linecap="butt" stroke-linejoin="round" stroke-width="6" d="M35.45 13.1Q39.75.95 27.8-6.7 3.9-22-16.5-18.4q-9 1.6-21.6 20.15-4.6 6.75 2.35 15.65 49.1 6.1 71.2-4.3Z"/><g id="a"><path fill="#FFF" d="M50.75-7.7q.15-.1.25-.15-1.25-1.9-2.9-3.65 1.45 1.7 2.65 3.8M5.05-14q9.75-13.45 9.3-30.2Q13.7-67.8 1.4-88.1-.1-90-1.7-91.85q-4.9-5.5-10.75-10.15-19.75-15.65-39.9-3.5Q-73.3-93-74.45-68.45q-.1 2.25-.05 4.4.012.74.05 1.45.784 20.483 14.25 36.7 8 9.65 19.8 13.6Q-17.5-4.55 5.05-14m17.7-99.5q-6.45 2.55-12.05 9.7-3.55 4.55-7.4 12-.95 1.75-1.9 3.7 12.3 20.3 12.95 43.9.45 16.75-9.3 30.2 2.85-.85 5.6-1.95 8.5-3.55 15.65-4.1-5.25.05-7.35.4-4.7.7-9.9 3.5 5.2-2.8 9.9-3.5 2.1-.35 7.35-.4 3.8-.3 7.25.25 8.9 1.4 14.55 8.3 1.65 1.75 2.9 3.65 7.15-4.45 10.95-7.85 4.45-4 8.85-10.45 9.8-14.05 11.6-30.1.8-7.1.05-14.6-1.35-13.25-5.5-22.5-4.8-10.75-14.3-18.3-7.95-6.4-18.3-6.55-9.3-.2-21.6 4.7Z"/><path fill="#69F" d="M28.55-20.05H26.3q-7.15.55-15.65 4.1-2.75 1.1-5.6 1.95-22.55 9.45-45.45 1.7-11.8-3.95-19.8-13.6-13.466-16.217-14.25-36.7-.038-.71-.05-1.45-3.15 3.25-6.25 6.55Q-89-48.95-95.1-38.65q-4.95 8.4-8 17.75-3.45 10.5-4.3 21.7-.85 11.8 1.1 23.7 1.95 11.55 6.75 22.45 4.75 10.9 12.3 20.3 6.85 8.6 32.9 23.55 53.388 2.177 124.4-6.2 3.152-2.503 6.15-5.3 31.55-29.35 31.55-70.9 0-37.25-25.35-64.65-1.8 16.05-11.6 30.1-4.4 6.45-8.85 10.45-3.8 3.4-10.95 7.85.006.009 0 0 1.654 2.46 2.65 5.2.2.5.35 1 1.25 3.9 1.25 8.3 0 .63-.05 1.25-.048 1.768-.35 3.45-1.325 8.064-7.45 14.15-3 3-6.45 4.85-1.75.95-3.6 1.6-4.1 1.4-8.8 1.4-11.05 0-18.9-7.85-1.1-1.1-2.05-2.3-4.8-4.55-11.2-7.95-12.75-6.75-20.7-1.05 7.95-5.7 20.7 1.05 6.4 3.4 11.2 7.95.95 1.2 2.05 2.3 7.85 7.85 18.9 7.85 4.7 0 8.8-1.4 1.85-.65 3.6-1.6 3.45-1.85 6.45-4.85 6.125-6.086 7.45-14.15.302-1.682.35-3.45.05-.62.05-1.25 0-4.4-1.25-8.3-.15-.5-.35-1-.996-2.74-2.65-5.2.006.009 0 0-.1.05-.25.15-1.2-2.1-2.65-3.8-.35-.4-.7-.75-7.8-7.8-18.85-7.8M18.05-4q4.95-4.6 12-4.6 7 0 11.95 4.6 1.179 1.096 2.05 2.3 2.9 3.848 2.9 8.8 0 1.635-.3 3.15-.936 4.548-4.65 8-4.95 4.55-11.95 4.55-7.05 0-12-4.55-2.4-2.25-3.65-4.95-1.3-2.85-1.3-6.2Q13.1.6 18.05-4m8.25-16.05h2.25q11.05 0 18.85 7.8.35.35.7.75-5.65-6.9-14.55-8.3-3.45-.55-7.25-.25M1.4-88.1q.95-1.95 1.9-3.7-1.65-.05-3.3-.05h-1.7Q-.1-90 1.4-88.1Z"/><path fill="#0A5A90" d="M30.05-8.6q-7.05 0-12 4.6T13.1 7.1q0 3.35 1.3 6.2 1.25 2.7 3.65 4.95 4.95 4.55 12 4.55 7 0 11.95-4.55 3.714-3.452 4.65-8 .3-1.515.3-3.15 0-4.952-2.9-8.8Q43.179-2.904 42-4q-4.95-4.6-11.95-4.6Z"/></g></defs><g transform="matrix(.64594 0 0 .64594 71.45 78.3)"><use xlink:href="#a"/><use xlink:href="#b"/></g><use xlink:href="#c" transform="matrix(.64594 0 0 .64594 79.169 36.928)"/><g transform="matrix(.64594 0 0 .64594 49.779 135.627)"><use xlink:href="#d"/><use xlink:href="#e"/></g><g transform="rotate(.498 -15372 11928.548) scale(.64592)"><use xlink:href="#f"/><use xlink:href="#g"/></g></svg>
