<svg xmlns="http://www.w3.org/2000/svg" viewBox="0 0 800 300">
  <style>
    .st2{fill:#0a5a90}.st3{font-family:&quot;ArialMT&quot;}.st4{font-size:12px}.st6{fill:#f90b0b;fill-opacity:0}.st11{fill:#69f}.st12{fill:none;stroke:#0a5a90;stroke-width:2;stroke-linejoin:round;stroke-miterlimit:2.5837}
  </style>
  <path id="bg" fill="#e4ecf9" d="M-.1-.2h800v300H-.1z"/>
  <path id="motionpath" fill="none" stroke="#069" stroke-linejoin="round" stroke-miterlimit="2.584" stroke-width="20" d="M55.9 166.8s192 99 277 34 126-117 220-118 111 74 156 84"/>
  <g id="school">
    <text class="st2 st3 st4" transform="translate(691.919 284.595)">SCHOOL</text>
    <g transform="translate(-45 15.6)">
      <path id="Layer1_3_FILL" fill="#d00059" d="M767.7 205.8v-11.7c-4.4-2.2-8.2-2.2-11.3 0-3.6 2.6-7.3 2.6-11.1 0v11.7c4 2.2 7.7 2.2 11.1 0 3.1-2.1 6.9-2.2 11.3 0m3.8 18.3h3.6l-29.7-16.7-29.2 16.7h3.6v30.4h80.8v-25.3h-29.3v-5.1h.2z"/>
    </g>
    <path d="M664 204h100v82H664z" class="st6"/>
  </g>
  <g id="dogpark">
    <text class="st2 st3 st4" transform="translate(657.919 81.595)">DOG PARK</text>
    <g transform="translate(-22)">
      <path id="Layer1_2_FILL" fill="#d87727" d="M736.2 22.3c-1.4 2.6-2.5 4-3.4 4-9 3.2-17.7 3.2-26.2 0-8.4-4.1-14.6-10.2-18.5-18.3l-2.2 5.2-2.7-3.2.8 7.8v.2l-12.8 16h.1c-.1.3-.2.6-.2.9 0 .5.2.9.5 1.3.4.4.8.6 1.3.6.4 0 .7-.1 1-.3l2 1.9c.7.6 1.8.9 3.2 1 2.8.2 5.8-.8 9.1-3.2l2.5 6.8.2 1c1.3 6.6 1.3 12.6 0 18.1 0 1.1.4 2.1 1.3 2.9.8.8 1.8 1.2 2.9 1.2 1.2 0 2.2-.4 3-1.2.8-.8 1.2-1.7 1.2-2.9v-8.4c11 5.5 20.7 6.1 29 1.9l-.4 7.1c0 1 .4 1.8 1.3 2.5.8.7 1.8 1.1 2.9 1.1 1.1 0 2.1-.4 3-1.1.8-.7 1.2-1.5 1.2-2.5-1.6-10.7-1.6-21.4 0-32.1 1.3-1.6 2.5-3.3 3.5-5 2.1-3.5 2.3-5.5.6-6.1-1.6-.7-2.9.3-4.2 2.8m-51 .8c.6 0 1 .2 1.4.6s.6.9.6 1.4-.2 1-.6 1.4c-.4.4-.8.6-1.4.6-.6 0-1-.2-1.4-.6s-.6-.9-.6-1.4c0-.6.2-1.1.6-1.4.4-.4.8-.6 1.4-.6z"/>
    </g>
    <path d="M646 4h82v82h-82z" class="st6"/>
  </g>
  <g id="candy">
    <text class="st2 st3 st4" transform="translate(372.919 253.595)">CANDY STORE</text>
    <g>
      <path id="Layer1_1_FILL" fill="#31b7db" d="M430.4 232.8c0-.5-.4-.9-1.1-1.2-.8-.3-1.7-.5-2.8-.5s-2 .2-2.8.5-1.1.7-1.1 1.2.4.9 1.1 1.2c.8.3 1.7.5 2.8.5s2-.2 2.8-.5c.7-.4 1.1-.8 1.1-1.2m1.2 1.9c0 .5.4.9 1.1 1.2.8.3 1.7.5 2.8.5s2-.2 2.8-.5 1.1-.7 1.1-1.2-.4-.9-1.1-1.2c-.8-.3-1.7-.5-2.8-.5s-2 .2-2.8.5c-.7.3-1.1.7-1.1 1.2m-16.4-5.4c-.8.3-1.1.7-1.1 1.2s.4.9 1.1 1.2c.8.3 1.7.5 2.8.5 1.1 0 2-.2 2.8-.5s1.1-.7 1.1-1.2-.4-.9-1.1-1.2-1.7-.5-2.8-.5-2 .2-2.8.5m19.3-1.1c-.8-.3-1.7-.5-2.8-.5s-2 .2-2.8.5-1.1.7-1.1 1.2.4.9 1.1 1.2 1.7.5 2.8.5 2-.2 2.8-.5 1.1-.7 1.1-1.2-.3-.9-1.1-1.2m-3.7-4.2c-.8.3-1.1.7-1.1 1.2s.4.9 1.1 1.2c.8.3 1.7.5 2.8.5s2-.2 2.8-.5 1.1-.7 1.1-1.2-.4-.9-1.1-1.2-1.7-.5-2.8-.5-2.1.2-2.8.5m-2.9 3.1c0-.5-.4-.9-1.1-1.2s-1.7-.5-2.8-.5-2 .2-2.8.5-1.1.7-1.1 1.2.4.9 1.1 1.2c.8.3 1.7.5 2.8.5s2-.2 2.8-.5c.7-.3 1.1-.7 1.1-1.2m-28.1 9.8 2.1 1.7 28.4-34.3c2.1 1.4 4.5 2 7.1 1.8 3-.3 5.4-1.6 7.4-3.9 1.9-2.3 2.8-5 2.5-8s-1.6-5.4-4-7.4c-2.3-1.9-4.9-2.7-7.9-2.5-3 .3-5.5 1.6-7.4 3.9-1.9 2.3-2.7 5-2.4 8 .2 2.5 1.1 4.6 2.8 6.4l-28.6 34.3m4.3-46-16.7 18c-1.2 1.3-1.8 2.8-1.7 4.6 0 1.3.4 2.5 1.2 3.5l-5 .4 7.7 7.1-.6-5.5c1 .6 2.1.8 3.4.8 1.8-.1 3.3-.8 4.5-2.1l16.7-18c1.2-1.3 1.8-2.9 1.7-4.7 0-1.6-.5-2.9-1.5-4.1l5.6.1-7.4-6.8v5.3c-1-.6-2.2-.8-3.5-.8-1.7.2-3.2.9-4.4 2.2z"/>
    </g>
    <path d="M370 182h95v82h-95z" class="st6"/>
  </g>
  <g id="home">
    <text class="st2 st3 st4" transform="translate(64.919 118.595)">HOME</text>
    <g transform="translate(-10.75 -17.4)">
      <path id="Layer1_0_FILL" fill="#208e86" d="M97 62.7c-.7-.5-1.3-.4-2 0l-11.6 7.4V66H69.1v.4L69 79.7l-4.5 3v10.7c.1-.1.2-.1.2-.2l3.2-2v32.7h10.6V98.6h18v25.2h26.9V91.4c0-.4-.1-.7-.3-1l4.4 2.8V82.4L97 62.7m5.9 48.1V99.4h13v11.4h-13z"/>
    </g>
    <path d="M44 39h82v82H44z" class="st6"/>
  </g>
  <g id="herman">
    <g transform="translate(653)">
      <g id="mon_0_Layer1_0_FILL">
        <path fill="#fff" d="M-585.1 162.1c.1 0 .1 0 0 0-.2-.5-.5-.8-.8-1.2.3.4.6.8.8 1.2m-14.5-2c2.1-2.9 3.1-6.1 3-9.6-.1-5-1.5-9.7-4.1-14-.3-.4-.6-.8-1-1.2-1-1.2-2.2-2.2-3.4-3.2-4.2-3.3-8.4-3.7-12.7-1.1-4.5 2.7-6.8 6.6-7 11.8v1.9c.2 4.4 1.7 8.3 4.5 11.7 1.7 2.1 3.8 3.5 6.3 4.3 4.7 1.6 9.6 1.4 14.4-.6m5.6-31.7c-1.4.5-2.7 1.6-3.8 3.1-.8 1-1.5 2.2-2.4 3.8l-.6 1.2c2.6 4.3 4 9 4.1 14 .1 3.6-.9 6.8-3 9.6l1.8-.6c1.8-.8 3.5-1.2 5-1.3-1.1 0-1.9.1-2.3.1-1 .1-2.1.5-3.2 1.1 1.1-.6 2.2-1 3.2-1.1.4-.1 1.2-.1 2.3-.1.8-.1 1.6 0 2.3.1 1.9.3 3.4 1.2 4.6 2.6.4.4.7.8.9 1.2 1.5-.9 2.7-1.8 3.5-2.5.9-.9 1.9-2 2.8-3.3 2.1-3 3.3-6.2 3.7-9.6.2-1.5.2-3.1 0-4.7-.3-2.8-.9-5.2-1.8-7.2-1-2.3-2.5-4.2-4.6-5.8-1.7-1.4-3.6-2.1-5.8-2.1-1.8 0-4.1.5-6.7 1.5z"/>
        <path d="M-592.2 158.2h-.7c-1.5.1-3.2.6-5 1.3l-1.8.6c-4.8 2-9.6 2.2-14.5.5-2.5-.8-4.6-2.3-6.3-4.3-2.9-3.4-4.4-7.3-4.5-11.7v-.5c-.7.7-1.3 1.4-2 2.1-1.8 1.8-3.3 3.8-4.6 6-1.1 1.8-1.9 3.7-2.6 5.7-.7 2.2-1.2 4.5-1.4 6.9-.2 2.5-.1 5 .4 7.6.4 2.5 1.1 4.8 2.2 7.2 1 2.3 2.3 4.5 3.9 6.5 1.5 1.8 5 4.3 10.5 7.5 11.3.5 24.6-.2 39.7-2 .7-.5 1.3-1.1 2-1.7 6.7-6.2 10.1-13.8 10.1-22.6 0-7.9-2.7-14.8-8.1-20.6-.4 3.4-1.6 6.6-3.7 9.6-.9 1.4-1.9 2.5-2.8 3.3-.8.7-2 1.6-3.5 2.5.4.5.6 1.1.8 1.7 0 .1.1.2.1.3.3.8.4 1.7.4 2.6v.4c0 .4 0 .7-.1 1.1-.3 1.7-1.1 3.2-2.4 4.5-.6.6-1.3 1.2-2.1 1.5-.4.2-.8.4-1.1.5-.9.3-1.8.4-2.8.4-2.3 0-4.4-.8-6-2.5l-.7-.7c-1-1-2.2-1.8-3.6-2.5-2.7-1.4-4.9-1.5-6.6-.3 1.7-1.2 3.9-1.1 6.6.3 1.4.7 2.6 1.6 3.6 2.5.2.3.4.5.7.7 1.7 1.7 3.7 2.5 6 2.5 1 0 1.9-.1 2.8-.4.4-.1.8-.3 1.1-.5.7-.4 1.4-.9 2.1-1.5 1.3-1.3 2.1-2.8 2.4-4.5.1-.4.1-.7.1-1.1v-.4c0-.9-.1-1.8-.4-2.6 0-.1-.1-.2-.1-.3-.2-.6-.5-1.1-.8-1.7h-.1c-.3-.4-.5-.9-.8-1.2-.1-.1-.1-.2-.2-.2-1.8-1.7-3.8-2.5-6.2-2.5m-3.3 5.1c1.1-1 2.3-1.5 3.8-1.5s2.8.5 3.8 1.5c.3.2.5.5.7.7.6.8.9 1.8.9 2.8 0 .3 0 .7-.1 1-.2 1-.7 1.8-1.5 2.6-1.1 1-2.3 1.5-3.8 1.5s-2.8-.5-3.8-1.5c-.5-.5-.9-1-1.2-1.6s-.4-1.3-.4-2c0-1.3.5-2.5 1.6-3.5m2.6-5.1h.7c2.3 0 4.4.8 6 2.5.1.1.1.2.2.2-1.2-1.5-2.7-2.3-4.6-2.6-.7-.1-1.5-.2-2.3-.1m-7.9-21.7.6-1.2h-1.6c.3.4.7.8 1 1.2z" class="st11"/>
        <path d="M-591.7 161.8c-1.5 0-2.8.5-3.8 1.5-1.1 1-1.6 2.2-1.6 3.5 0 .7.1 1.4.4 2s.7 1.1 1.2 1.6c1.1 1 2.3 1.5 3.8 1.5s2.8-.5 3.8-1.5c.8-.7 1.3-1.6 1.5-2.6.1-.3.1-.7.1-1 0-1.1-.3-2-.9-2.8-.2-.3-.4-.5-.7-.7-1-1-2.3-1.5-3.8-1.5z" class="st2"/>
      </g>
    </g>
    <g transform="translate(653)">
      <path id="mon_0_Layer1_0_1_STROKES" d="M-600.2 135.3c.8-1.6 1.6-2.9 2.4-3.8 1.2-1.5 2.5-2.6 3.8-3.1 2.6-1 4.9-1.5 6.9-1.5 2.2 0 4.1.7 5.8 2.1 2 1.6 3.5 3.5 4.6 5.8.9 2 1.5 4.4 1.8 7.2.2 1.6.2 3.1 0 4.7 5.4 5.8 8.1 12.7 8.1 20.6 0 8.8-3.4 16.4-10.1 22.6-.6.6-1.3 1.2-2 1.7s-1.3 1-2 1.5m-20.9-57.8c.3.4.7.8 1 1.2l.6-1.2h-1.6c-1-1.2-2.2-2.2-3.4-3.2-4.2-3.3-8.4-3.7-12.7-1.1-4.5 2.7-6.8 6.6-7 11.8v1.9c.2 4.3 1.7 8.2 4.5 11.7 1.7 2.1 3.8 3.5 6.3 4.3 4.9 1.6 9.7 1.5 14.5-.5 2.1-2.9 3.1-6.1 3-9.6-.1-5-1.5-9.7-4.1-14m7.8 21.6h.7c2.3 0 4.4.8 6 2.5.1.1.1.2.2.2-1.2-1.5-2.7-2.3-4.6-2.6-.7-.1-1.5-.2-2.3-.1-1.5.1-3.2.6-5 1.3l-1.8.6m1.3-.7c1.1-.6 2.2-1 3.2-1.1.4-.1 1.2-.1 2.3-.1m7.9 3.9c.4.5.6 1.1.8 1.7 0 .1.1.2.1.3.3.8.4 1.7.4 2.6v.4c0 .4-.1.7-.1 1.1-.3 1.7-1.1 3.2-2.4 4.5-.6.6-1.3 1.2-2.1 1.5-.4.2-.8.4-1.1.5-.9.3-1.8.4-2.8.4-2.3 0-4.4-.8-6-2.5l-.7-.7c-1-1-2.2-1.8-3.6-2.5-2.7-1.4-4.9-1.5-6.6-.3m24.1-7-.9-1.2.9 1.2c1.5-.9 2.7-1.8 3.5-2.5.9-.9 1.9-2 2.8-3.3 2.1-3 3.3-6.2 3.7-9.6m-43.6 46.8c-5.5-3.2-9-5.7-10.5-7.5-1.6-2-2.9-4.2-3.9-6.5s-1.7-4.7-2.2-7.2c-.4-2.5-.5-5-.4-7.6.2-2.4.6-4.7 1.4-6.9.6-2 1.5-3.9 2.6-5.7 1.3-2.2 2.8-4.2 4.6-6 .7-.7 1.3-1.4 2-2.1" class="st12"/>
    </g>
    <g transform="translate(664.95 -64.05)">
      <path id="eyes_0_Layer0_0_FILL" d="M-612.2 207.4c-.6-.6-1.2-.8-2-.8s-1.5.3-2 .8c-.6.6-.8 1.2-.8 2s.3 1.5.8 2 1.2.8 2 .8 1.5-.3 2-.8.8-1.2.8-2-.3-1.5-.8-2m14.2-3.7c-.5.5-.7 1.1-.7 1.8s.2 1.3.7 1.8 1.1.7 1.8.7 1.3-.2 1.8-.7.7-1.1.7-1.8-.2-1.3-.7-1.8-1.1-.7-1.8-.7-1.3.2-1.8.7z" class="st2"/>
    </g>
    <g transform="translate(619.45 88.75)">
      <path id="foot_0_Layer0_0_FILL" fill="#6598fd" d="M-565.9 102.9c-3.6-3.4-7-5.1-10.4-5.2-3.3-.1-5.9 1.1-7.7 3.5-1.8 2.5-2 4.9-.6 7.3 1.4 2.4 7.3 2.2 17.9-.4 1.9-2.2 2.2-3.9.8-5.2z"/>
    </g>
    <g transform="translate(619.45 88.75)">
      <path id="foot_0_Layer0_0_1_STROKES" d="M-584.5 108.6c-1.4-2.4-1.2-4.8.6-7.2 1.8-2.5 4.3-3.6 7.7-3.5 3.3.1 6.8 1.8 10.4 5.2 1.3 1.2 1.1 3-.8 5.2-10.6 2.5-16.5 2.7-17.9.3z" class="st12"/>
    </g>
    <g transform="matrix(.99994 .00862 -.00862 .99994 700.7 84.65)">
      <path id="foot2_0_Layer0_0_FILL" d="M-621.5 116.5c.9-2.6.1-4.7-2.4-6.3-5.1-3.3-9.8-4.5-14.1-3.7-1.9.3-4.2 2.5-6.9 6.4-1 1.4-.7 3.1.7 5 10.4 1.3 18 .8 22.7-1.4z" class="st11"/>
    </g>
    <g transform="matrix(.99994 .00862 -.00862 .99994 700.7 84.65)">
      <path id="foot2_0_Layer0_0_1_STROKES" fill="none" stroke="#0a5a90" stroke-linejoin="round" stroke-miterlimit="2.583" stroke-width="2" d="M-621.5 116.5c.9-2.6.1-4.7-2.4-6.3-5.1-3.3-9.8-4.5-14.1-3.7-1.9.3-4.2 2.5-6.9 6.4-1 1.4-.7 3.1.7 5 10.4 1.3 18 .8 22.7-1.4z"/>
    </g>
  </g>
</svg>
