<svg xmlns="http://www.w3.org/2000/svg" width="50" height="50" viewBox="0 0 1024 1024">
  <path fill="#E6E6E6" d="M512 64 149.333 386.368v552.299A42.667 42.667 0 0 0 192 981.333h640a42.667 42.667 0 0 0 42.667-42.666v-552.32L512 64z"/>
  <path fill="#E86C60" d="M981.333 512a21.312 21.312 0 0 1-14.357-5.547L512 92.8 57.024 506.453a21.333 21.333 0 1 1-28.715-31.573L497.643 48.213a21.397 21.397 0 0 1 28.714 0L995.691 474.88A21.333 21.333 0 0 1 981.333 512z"/>
  <path fill="#A67C52" d="M597.333 704H426.667a21.333 21.333 0 0 0-21.334 21.333v256h213.334v-256A21.333 21.333 0 0 0 597.333 704z"/>
  <path fill="#43A6DD" d="M597.333 576H426.667a21.333 21.333 0 0 1-21.334-21.333v-128a21.333 21.333 0 0 1 21.334-21.334h170.666a21.333 21.333 0 0 1 21.334 21.334v128A21.333 21.333 0 0 1 597.333 576z"/>
</svg>
