<svg xmlns="http://www.w3.org/2000/svg" width="50" height="50" viewBox="0 0 256 256">
  <g fill="none" stroke-miterlimit="10" stroke-width="0">
    <path fill="#000" d="M235.145 1.407h-13.65a2.81 2.81 0 0 0-2.81 2.81v11.498H186.77c-12.833 0-23.275 10.442-23.275 23.275v9.976h-6.79a2.81 2.81 0 0 0-2.81 2.81v19.327a2.81 2.81 0 0 0 2.81 2.81h38.658a2.81 2.81 0 0 0 2.81-2.81V51.776a2.81 2.81 0 0 0-2.81-2.81h-5.783V45.4a3.136 3.136 0 0 1 3.133-3.133h25.967v10.962a2.81 2.81 0 0 0 2.81 2.81h13.651a2.81 2.81 0 0 0 2.81-2.81V4.217a2.807 2.807 0 0 0-2.807-2.81z"/>
    <path fill="#9ac7ff" d="M206.253 213.798c0-10.215-8.281-18.496-18.496-18.496-.62 0-1.236.034-1.843.093V82.467h-20.623V208.11c-1.028-.2-2.09-.309-3.178-.309-9.236 0-16.725 7.489-16.725 16.725s7.489 16.725 16.725 16.725c.745 0 1.473-.064 2.192-.16 2.085 5.59 7.424 9.59 13.741 9.59 8.124 0 14.708-6.583 14.708-14.707 0-1.472-.281-2.866-.686-4.21 8.135-1.944 14.185-9.241 14.185-17.966z"/>
    <path fill="#000" d="M176.034 224.605a2.807 2.807 0 0 0 2.81-2.81V81.725a2.81 2.81 0 1 0-5.62 0v140.07a2.81 2.81 0 0 0 2.81 2.81z"/>
    <path fill="#000" d="M189.581 192.293v-15.894h1.354c6.792 0 12.32-5.527 12.32-12.322 0-2.573-.799-4.962-2.153-6.94 5.707-1.074 10.046-6.075 10.046-12.092 0-6.31-4.791-11.47-10.917-12.175a12.24 12.24 0 0 0 2.088-6.851c0-6.795-5.527-12.322-12.322-12.322h-.416V81.719a2.81 2.81 0 1 0-5.62 0v140.076c0 1.554 1.256 2.81 2.81 2.81s2.81-1.256 2.81-2.81v-23.82c7.767 1.382 13.685 8.168 13.685 16.323 0 7.078-4.507 13.381-11.212 15.685l-2.484.852.683 2.534c.29 1.068.432 2.133.432 3.162 0 6.704-5.451 12.156-12.153 12.156-5.15 0-9.759-3.274-11.462-8.147l-.694-1.98-2.81.143c-8.14 0-14.764-6.624-14.764-14.767 0-7.772 6.053-14.092 13.682-14.657v12.516c0 1.554 1.256 2.81 2.81 2.81s2.81-1.256 2.81-2.81V81.725a2.81 2.81 0 1 0-5.62 0v31.978h-22.623l12.133-15.318c2.027-2.66 2.83-5.912 2.26-9.157-.59-3.35-2.552-6.247-5.522-8.158-5.881-3.782-14.033-2.436-18.158 2.982l-24.588 31.727a7.475 7.475 0 0 1-5.951 2.917h-8.95l.775-.98c2.03-2.662 2.83-5.913 2.26-9.158-.59-3.35-2.549-6.247-5.52-8.158-5.883-3.785-14.032-2.436-18.16 2.981l-24.588 31.725a7.487 7.487 0 0 1-5.951 2.917h-9.223c-7.126 0-12.923 5.797-12.923 12.923v45.01c0 7.127 5.797 12.924 12.923 12.924H46.58c1.666 0 3.302.385 4.864 1.141 6.43 3.108 13.665 4.752 20.924 4.752l40.924-.02c6.795 0 12.322-5.527 12.322-12.322 0-2.568-.792-4.948-2.141-6.924l9.012-.064 29.996.264v7.899c-10.737.567-19.301 9.455-19.301 20.33 0 10.903 8.6 19.833 19.374 20.361 2.945 6.062 9.133 10.01 15.978 10.01 9.799 0 17.773-7.975 17.773-17.776 0-.717-.047-1.44-.14-2.164 7.696-3.64 12.718-11.423 12.718-20.072.003-11.26-8.427-20.566-19.302-22.002z"/>
    <path fill="#ecc589" d="M190.935 170.78h-1.354v-13.404h1.354c3.693 0 6.7 3.004 6.7 6.701s-3.004 6.702-6.7 6.702zM205.528 145.048a6.709 6.709 0 0 1-6.705 6.702l-9.242.006v-13.41l9.245.003c3.695 0 6.702 3.007 6.702 6.7zM189.997 119.32a6.71 6.71 0 0 1 6.702 6.702 6.707 6.707 0 0 1-6.702 6.699c-.011 0-.02.005-.031.005h-.385V119.32h.416zM113.298 195.727c3.695 0 6.702 3.003 6.702 6.701s-3.007 6.702-6.702 6.702l-40.928.02c-6.415 0-12.805-1.45-18.473-4.19-2.295-1.113-4.827-1.703-7.314-1.703H30.681c-4.027 0-7.303-3.276-7.303-7.303v-45.01c0-4.027 3.276-7.304 7.303-7.304h9.223c4.097 0 7.884-1.857 10.394-5.094l24.599-31.742c2.366-3.105 7.25-3.872 10.663-1.68 1.636 1.053 2.71 2.616 3.024 4.403a6.052 6.052 0 0 1-1.16 4.738l-4.134 5.215c-.073.07-.12.157-.188.236L71.71 134.095a2.814 2.814 0 0 0-.329 2.97 2.81 2.81 0 0 0 2.53 1.585l55.95-.003c3.694 0 6.701 3.004 6.701 6.702s-3.004 6.702-6.702 6.702c-.008 0-.017.005-.028.005H92.366a2.81 2.81 0 1 0 0 5.62h46.326c3.692 0 6.699 3.004 6.699 6.702s-3.004 6.702-6.699 6.702h-19.426c-.014 0-.025.008-.042.008h-27.74a2.81 2.81 0 1 0 0 5.62h39.312c3.695 0 6.702 3.004 6.702 6.7 0 2.925-.869 6.412-5.019 6.412l-40.593.29a2.811 2.811 0 0 0 .02 5.62h.02l20.639-.147c.244.062.474.144.733.144z"/>
    <path fill="#ecc589" d="M141.696 189.899c.905-1.813 1.427-3.988 1.427-6.494 0-2.571-.798-4.96-2.152-6.938 5.704-1.074 10.04-6.075 10.04-12.092 0-6.314-4.788-11.47-10.914-12.178a12.26 12.26 0 0 0 2.088-6.848c0-6.795-5.527-12.322-12.322-12.322l-50.139.003 6.907-8.72h13.401c4.038 0 7.921-1.905 10.394-5.094l24.602-31.745c2.366-3.108 7.252-3.87 10.66-1.68 1.636 1.054 2.713 2.619 3.027 4.406a6.064 6.064 0 0 1-1.163 4.738l-15.71 19.83a2.81 2.81 0 0 0 2.203 4.555h28.434v13.404H152.5c-1.554 0-2.81 1.256-2.81 2.81s1.256 2.81 2.81 2.81h9.987v13.409h-10.863c-1.554 0-2.81 1.256-2.81 2.81s1.256 2.81 2.81 2.81h10.863v13.404h-10.442c-1.554 0-2.81 1.256-2.81 2.81s1.256 2.81 2.81 2.81h10.442v13.681l-20.791-.18z"/>
    <path fill="#f0f0f0" d="M192.543 68.285h-33.018V54.572H192.542zM192.714 36.647c-4.827 0-8.753 3.925-8.753 8.753v3.566h-14.845V38.99c0-9.733 7.918-17.655 17.655-17.655h31.91v15.312h-25.967zM232.332 50.413h-8.036V7.027h8.036z"/>
  </g>
</svg>
