<svg xmlns="http://www.w3.org/2000/svg" viewBox="0 0 300 250">
  <style>
    .st3{fill:#dedede}.st7{fill:#042c0a}.st8{fill:#113f18}.st9{fill:#073a0f}
  </style>
  <g id="road">
    <g transform="translate(220 -49.95)">
      <path id="ground_level_0_Layer2_0_FILL" fill="#ab7641" d="M91 301v-600h-322v600H91z"/>
    </g>
    <g transform="translate(220 -49.95)">
      <path id="ground_level_0_Layer1_0_FILL" fill="#65411e" d="M-92.2 108.5c1.4-1.5 2.1-3.1 2-4.7 0-1.6-.8-2.8-2.2-3.7-1.4-.9-3.1-1.1-5.1-.7s-3.8 1.4-5.2 2.8c-1.4 1.5-2 3-2 4.7 0 .5.1 1 .2 1.5-1.2-.1-2.5 0-3.8.2-3.4.8-6.2 2.4-8.6 4.9-2.4 2.4-3.5 5-3.4 7.8s1.3 4.9 3.8 6.3c2.4 1.4 5.3 1.8 8.7 1 3.4-.7 6.2-2.3 8.6-4.8 2.3-2.4 3.5-5 3.4-7.8 0-1.9-.6-3.5-1.8-4.8.1 0 .2-.1.4-.1 2-.2 3.6-1.2 5-2.6M-162.7-28c-2.8 1.3-4.7 3.4-5.7 6.2-1 2.9-.9 5.7.4 8.4 1.3 2.8 3.4 4.7 6.2 5.7.9.3 1.9.5 2.9.6-1.2 1.5-2.2 3.3-2.9 5.2-1.7 4.8-1.5 9.5.7 14.1s5.6 7.8 10.4 9.6a18 18 0 0 0 14.2-.7c4.6-2.2 7.8-5.6 9.5-10.4s1.5-9.5-.7-14.2c-2.2-4.6-5.7-7.8-10.5-9.4-3.3-1.2-6.6-1.5-9.8-.8.1-.2.2-.4.2-.6 1-2.8.9-5.6-.4-8.4-1.3-2.8-3.4-4.7-6.3-5.7-2.7-1-5.5-.9-8.2.4m58.3-187.9c-5.1 0-9.5 1.8-13.1 5.4-3.6 3.6-5.4 8-5.4 13.1 0 3.5.9 6.7 2.6 9.5h-.6a10.97 10.97 0 0 0-11 11 10.97 10.97 0 0 0 11 11c3 0 5.6-1.1 7.8-3.2s3.3-4.7 3.2-7.8c0-1-.1-2-.4-2.9 1.9.6 3.8.9 5.9.9 5.1 0 9.4-1.8 13-5.4 3.6-3.6 5.5-7.9 5.5-13.1 0-5.1-1.8-9.5-5.5-13.1a17.3 17.3 0 0 0-13-5.4M67.1 126.5c0 4 1.4 7.4 4.2 10.2s6.2 4.2 10.2 4.2 7.4-1.4 10.2-4.2c2.8-2.8 4.3-6.2 4.2-10.2 0-4-1.4-7.4-4.2-10.2-2.8-2.8-6.2-4.2-10.2-4.2s-7.4 1.4-10.2 4.2-4.2 6.2-4.2 10.2m0-195.5c0 6.4 2.2 11.8 6.7 16.2 4.5 4.5 9.9 6.8 16.3 6.8s11.8-2.2 16.2-6.8c4.5-4.5 6.8-9.9 6.8-16.2 0-6.4-2.2-11.8-6.8-16.3-4.5-4.5-9.9-6.7-16.2-6.7-6.4 0-11.8 2.2-16.3 6.7s-6.7 9.9-6.7 16.3m-1.5-180.4c1-1 1.5-2.1 1.5-3.5s-.5-2.6-1.5-3.6-2.1-1.5-3.5-1.5-2.5.5-3.5 1.5-1.5 2.2-1.5 3.6.5 2.5 1.5 3.5a4.85 4.85 0 0 0 7 0m6.2 90.3a4 4 0 0 0 0-5.7c-.8-.8-1.7-1.1-2.8-1.1s-2.1.4-2.9 1.1c-.8.8-1.1 1.8-1.1 2.9s.4 2 1.1 2.8c.8.8 1.8 1.2 2.9 1.2s2.1-.4 2.8-1.2m-254.7-59.8c1.3-1.3 1.9-2.8 1.9-4.6s-.6-3.3-1.9-4.6c-1.3-1.3-2.8-1.9-4.6-1.9s-3.3.6-4.6 1.9c-1.3 1.3-1.9 2.8-1.9 4.6s.6 3.3 1.9 4.6a6.2 6.2 0 0 0 4.6 1.9c1.8.1 3.4-.6 4.6-1.9m23.6-37.4c.9-.9 1.4-1.9 1.4-3.2 0-1.2-.5-2.3-1.4-3.2-.9-.9-1.9-1.3-3.1-1.3-1.2 0-2.3.4-3.2 1.3s-1.3 2-1.3 3.2.4 2.3 1.3 3.2c.9.9 2 1.3 3.2 1.3 1.2.1 2.2-.4 3.1-1.3m-7.6 141.9c0 1.5.5 2.8 1.6 3.9s2.4 1.6 3.9 1.6 2.8-.5 3.9-1.6 1.6-2.4 1.6-3.9-.5-2.8-1.6-3.9-2.4-1.6-3.9-1.6-2.8.5-3.9 1.6-1.6 2.3-1.6 3.9m71.7 79.2c.8-.8 1.2-1.7 1.2-2.8s-.4-2-1.2-2.8a4 4 0 0 0-5.7 0c-.8.8-1.1 1.7-1.1 2.8s.4 2 1.1 2.8c.8.8 1.8 1.2 2.9 1.2s2.1-.4 2.8-1.2M-166.9 79c1.4 0 2.5-.5 3.5-1.5s1.5-2.1 1.5-3.5-.5-2.6-1.5-3.6-2.1-1.4-3.5-1.4-2.6.5-3.6 1.4c-1 1-1.4 2.2-1.4 3.6s.5 2.5 1.4 3.5c1 1 2.2 1.5 3.6 1.5m60.7 152.8c1.5-1.5 2.2-3.2 2.2-5.3s-.7-3.8-2.2-5.3-3.2-2.2-5.3-2.2-3.8.7-5.3 2.2-2.2 3.2-2.2 5.3.7 3.8 2.2 5.3 3.2 2.2 5.3 2.2 3.9-.7 5.3-2.2m39.7 42.7c3-3 4.5-6.7 4.5-11s-1.5-7.9-4.5-10.9-6.7-4.6-10.9-4.6c-4.3 0-7.9 1.5-11 4.6-3 3-4.5 6.7-4.5 10.9 0 4.3 1.5 7.9 4.5 11 3 3 6.7 4.5 11 4.5 4.2 0 7.9-1.5 10.9-4.5z"/>
    </g>
    <g transform="translate(220 -49.95)">
      <path id="road_0_Layer1_0_FILL" fill="#545252" d="M51 300v-600H-51v600H51z"/>
    </g>
    <g transform="translate(220 219.05)">
      <path id="line_0_Layer0_0_FILL" d="M4 30v-60h-8v60h8z" class="st3"/>
    </g>
    <g transform="translate(220 119.05)">
      <path id="line_0_Layer0_0_FILL_1_" d="M4 30v-60h-8v60h8z" class="st3"/>
    </g>
    <g transform="translate(220 19.05)">
      <path id="line_0_Layer0_0_FILL_2_" d="M4 30v-60h-8v60h8z" class="st3"/>
    </g>
    <g transform="translate(220 -80.95)">
      <path id="line_0_Layer0_0_FILL_3_" d="M4 30v-60h-8v60h8z" class="st3"/>
    </g>
    <g transform="translate(220 -180.95)">
      <path id="line_0_Layer0_0_FILL_4_" d="M4 30v-60h-8v60h8z" class="st3"/>
    </g>
    <g transform="translate(220 -290.95)">
      <path id="line_0_Layer0_0_FILL_5_" d="M4 30v-60h-8v60h8z" class="st3"/>
    </g>
  </g>
  <g id="car">
    <g transform="matrix(.73 0 0 .73 172.2 165.1)">
      <path id="car_0_Layer2_0_FILL" d="M37.3 39.9a5.6 5.6 0 0 0-4-1.7c-1.6 0-2.9.6-4 1.7a5.6 5.6 0 0 0-1.7 4v13.2c0 1.6.6 2.9 1.7 4s2.5 1.7 4 1.7c1.6 0 2.9-.6 4-1.7a5.6 5.6 0 0 0 1.7-4V44c0-1.6-.6-2.9-1.7-4.1m65.9-1.7a5.83 5.83 0 0 0-5.8 5.7v13.2c0 1.6.6 2.9 1.7 4a5.66 5.66 0 0 0 8.1 0 5.6 5.6 0 0 0 1.7-4V44c0-1.6-.6-2.9-1.7-4-1-1.2-2.4-1.8-4-1.8m0-59.9a5.83 5.83 0 0 0-5.8 5.7v13.2c0 1.6.6 2.9 1.7 4s2.5 1.7 4.1 1.7 2.9-.6 4-1.7 1.7-2.5 1.7-4V-16c0-1.6-.6-2.9-1.7-4-1-1.2-2.4-1.7-4-1.7M37.3-20a5.6 5.6 0 0 0-4-1.7c-1.6 0-2.9.6-4 1.7a5.6 5.6 0 0 0-1.7 4v13.2c0 1.6.6 2.9 1.7 4s2.5 1.7 4 1.7c1.6 0 2.9-.6 4-1.7s1.7-2.5 1.7-4V-16c0-1.6-.6-2.9-1.7-4z"/>
    </g>
    <g transform="matrix(.73 0 0 .73 172.2 165.1)">
      <g id="car_0_Layer1_0_FILL">
        <path fill="#f60" d="M67.7-41c-10.2.4-18.7 3.5-25.5 9.5C35.4-25.6 32-17.6 32-7.5c2.8 24.1 2.8 47.3 0 69.5 0 13.3 6.7 20 20 20 10.7-2.2 21.7-2.2 33 0 13.3 0 20-6.7 20-20-2.5-23.8-2.5-47 0-69.5 0-10.1-3.7-18.2-11-24.5-7.3-6.4-16.1-9.4-26.3-9M87.9.6c5.4 4 8.1 8.8 8.1 14.5v39.1c0 7.5-5 11.2-15 11.2H56.1C46 65.4 41 61.7 41 54.2V15.1C41 9.4 43.7 4.6 49.1.6s11.8-6 19.4-6c7.6 0 14.1 2 19.4 6z"/>
        <path fill="#b7500b" d="M96 15.1C96 9.4 93.3 4.6 87.9.6s-11.8-6-19.4-6-14 2-19.4 6S41 9.4 41 15.1v39.1c0 7.5 5 11.2 15.1 11.2h24.8c10 0 15-3.7 15-11.2V15.1h.1z"/>
      </g>
    </g>
    <g transform="matrix(.73 0 0 .73 172.2 165.1)">
      <g id="car_0_Layer0_0_FILL">
        <path d="M44 41.2c-.2 0-.4 0-.5.2-.1.1-.2.2-.2.3v13.1c0 .1.1.2.2.3.2.1.3.1.5.1s.4 0 .5-.1c.2-.1.2-.2.2-.3V41.7c0-.1-.1-.2-.2-.3-.1-.1-.3-.2-.5-.2m0-28c-.2 0-.4.1-.5.2-.1.2-.2.3-.2.5v23.5c0 .2.1.4.2.5.2.2.3.2.5.2s.4-.1.5-.2c.2-.1.2-.3.2-.5V14c0-.2-.1-.4-.2-.5-.1-.2-.3-.3-.5-.3m48.4 28.2c-.1.1-.2.2-.2.3v13.1c0 .1.1.2.2.3.2.1.3.1.6.1s.4 0 .5-.1c.2-.1.2-.2.2-.3V41.7c0-.1-.1-.2-.2-.3s-.3-.2-.5-.2-.4.1-.6.2m0-28c-.1.2-.2.3-.2.5v23.5c0 .2.1.4.2.5.2.2.3.2.6.2s.4-.1.5-.2c.2-.1.2-.3.2-.5V14c0-.2-.1-.4-.2-.5s-.3-.2-.5-.2-.4 0-.6.1M68.3-5.4c-6.7 0-12.4 1.6-17.1 4.8C47.3 2 45 5.1 44.3 8.7c17.2-8.7 33.2-8.7 48 0-.7-3.6-3-6.7-6.9-9.3C80.7-3.8 75-5.4 68.3-5.4z"/>
        <path fill="#ccc" fill-opacity=".77" d="M78.7-32.3c-.3.4-.6.8-.8 1.1 5.7-2.1 9.3-1.3 10.9 2.2 2.3-.2 2.7-1.3 1.2-3.3-1.6-2.2-3.5-3.3-5.7-3.3s-4 1.1-5.6 3.3m-31.9 0c-1.5 2.1-1.5 3.4 0 4.1 2.4-4.1 6.5-5.1 12.1-3-.3-.3-.5-.7-.8-1.1-1.6-2.2-3.5-3.3-5.6-3.3-2.2 0-4.1 1.1-5.7 3.3z"/>
      </g>
    </g>
  </g>
  <g id="trees">
    <g transform="translate(164.25 84)">
      <g id="trees_0_Layer0_0_FILL">
        <path d="M87.2 66.4a8.91 8.91 0 0 1-6.7 2.8c-1.7 0-3.2-.4-4.6-1.1-6.3 6.5-10.8 13.8-13.4 21.9-1.7 5.4-2.5 11.1-2.5 17.2s.8 11.8 2.5 17.2c2.6 8.3 7.2 15.7 13.8 22.3 10.9 10.9 24.1 16.4 39.6 16.4s28.7-5.5 39.6-16.4 16.4-24.1 16.4-39.6-5.5-28.7-16.4-39.6c-4.1-4.1-8.4-7.4-13.1-9.9-1-5.1-3.5-9.7-7.4-13.6-5.3-5.3-11.6-7.9-19.1-7.9s-13.8 2.6-19.1 7.9c-3.8 3.8-6.2 8.1-7.2 12.9.2.8.4 1.7.4 2.7 0 2.7-.9 4.9-2.8 6.8M72 90.2c0-3.6 1.3-6.7 3.8-9.2s5.6-3.8 9.2-3.8c2.9 0 5.4.8 7.6 2.4-2.9.7-5.5 2.1-7.8 4.4-3.2 3.2-4.8 7.1-4.8 11.7 0 2.6.5 4.9 1.5 7.1-2.2-.6-4.1-1.7-5.8-3.4a13.1 13.1 0 0 1-3.7-9.2m-1 35.5c0-8.1 2.9-15.1 8.6-20.9.6-.6 1.3-1.2 2-1.8.8 1.5 1.8 3 3.2 4.3 2.5 2.5 5.5 4.1 8.9 4.7-.9-2.8-1.4-5.8-1.6-8.9l-.1-.1c-2-2-3-4.5-3-7.4s1-5.4 3-7.4c.9-.9 1.8-1.5 2.8-2 1.6-3.8 3.9-7.2 7-10.4-.9-.6-1.7-1.2-2.5-2-2.9-2.9-4.4-6.5-4.4-10.6s1.5-7.7 4.4-10.6 6.5-4.4 10.6-4.4 7.7 1.5 10.6 4.4S125 59 125 63.2c0 .4 0 .8-.1 1.2 1.2-.1 2.3-.2 3.6-.2 10.1 0 18.7 3.6 25.8 10.7S165 90.6 165 100.7s-3.6 18.7-10.7 25.8a35.18 35.18 0 0 1-25.8 10.7h-.8c-1.4 3.4-3.6 6.5-6.4 9.4-5.8 5.8-12.7 8.6-20.8 8.6s-15.1-2.9-20.9-8.6c-5.7-5.8-8.6-12.8-8.6-20.9m31.7.8c-2.8-2.8-5-5.8-6.7-9.1-2.1.5-4 1.5-5.7 3.1-2.2 2.3-3.3 5-3.3 8.1 0 3.2 1.1 5.9 3.3 8.1 2.3 2.3 5 3.4 8.2 3.4s5.9-1.1 8.1-3.4c1.4-1.4 2.4-3 2.9-4.8a38.4 38.4 0 0 1-6.8-5.4z" class="st7"/>
        <path d="M154.3 74.9a35.18 35.18 0 0 0-25.8-10.7c-1.2 0-2.4 0-3.6.2 0-.4.1-.8.1-1.2 0-4.1-1.5-7.7-4.4-10.6s-6.5-4.4-10.6-4.4-7.7 1.5-10.6 4.4S95 59 95 63.2c0 4.1 1.5 7.7 4.4 10.6.8.8 1.6 1.4 2.5 2-3 3.2-5.4 6.7-7 10.4-1 .5-2 1.1-2.8 2-2 2.1-3 4.5-3 7.4s1 5.4 3 7.4l.1.1c.2 3.1.7 6 1.6 8.9.6 1.9 1.4 3.7 2.3 5.4a39.03 39.03 0 0 0 13.5 14.6c5.4 3.3 11.5 5.1 18.2 5.2h.8c10.1 0 18.7-3.6 25.8-10.7 7.1-7.1 10.7-15.7 10.7-25.8s-3.7-18.7-10.8-25.8m-80.5-22C71.9 54.8 71 57 71 59.7s.9 4.9 2.8 6.7c.7.7 1.4 1.2 2.2 1.7 1.4.7 2.9 1.1 4.6 1.1 2.6 0 4.9-.9 6.7-2.8 1.9-1.8 2.8-4.1 2.8-6.7 0-.9-.1-1.8-.4-2.7-.4-1.5-1.2-2.9-2.4-4.1a9.3 9.3 0 0 0-6.7-2.8c-2.7.1-5 1-6.8 2.8z" class="st8"/>
        <path d="M79.6 104.8c-5.8 5.8-8.6 12.7-8.6 20.9s2.9 15.1 8.6 20.8c5.8 5.8 12.7 8.6 20.9 8.6 8.1 0 15.1-2.9 20.8-8.6 2.8-2.8 5-5.9 6.4-9.4-6.7-.1-12.8-1.9-18.2-5.2-.5 1.8-1.5 3.4-2.9 4.8-2.2 2.3-4.9 3.4-8.1 3.4s-5.9-1.1-8.2-3.4c-2.2-2.2-3.3-4.9-3.3-8.1 0-3.2 1.1-5.9 3.3-8.1 1.6-1.6 3.5-2.6 5.7-3.1-.9-1.8-1.7-3.6-2.3-5.4-3.4-.6-6.4-2.1-8.9-4.7-1.3-1.3-2.4-2.8-3.2-4.3-.7.6-1.3 1.2-2 1.8M75.8 81c-2.5 2.5-3.8 5.6-3.8 9.2s1.3 6.7 3.8 9.2c1.7 1.7 3.6 2.8 5.8 3.4-1-2.2-1.5-4.5-1.5-7.1 0-4.6 1.6-8.5 4.8-11.7 2.3-2.2 4.9-3.7 7.8-4.4-2.2-1.6-4.7-2.4-7.6-2.4-3.7 0-6.8 1.2-9.3 3.8z" class="st9"/>
      </g>
    </g>
    <g transform="rotate(-47.46 103.1 -105.19)">
      <g id="trees_0_Layer0_1_FILL">
        <path d="M-36.7 99.9c-1.4 1.4-3 2.6-4.5 3.6 2.1-.7 3.9-1.8 5.6-3.5 2.3-2.3 3.6-4.9 4-7.9-1 2.8-2.7 5.4-5.1 7.8m-49.4-65.5c-3.6 3.7-8 5.5-13.1 5.6-1.6.7-3.4 1-5.3 1 5.2 1.7 10 4.5 14.3 8.4.3-.3.7-.6 1.1-1 4.4-4.4 6.6-9.7 6.6-15.9 0-.9 0-1.8-.2-2.7-.8 1.7-2 3.2-3.4 4.6m-32.2-10.1c-.2-1.1-.2-2.2-.2-3.3 0-2.7.5-5.3 1.5-7.6-1.4.9-2.7 1.9-3.9 3.2-1 1-1.8 2-2.6 3.1-.1 4.5-1.4 8.5-3.9 12 0 .3-.1.5-.1.8 0 2.6.4 5.1 1.2 7.4 2.8-.6 5.7-.9 8.8-.9 2.3 0 4.5.2 6.6.5-1.2-.7-2.4-1.5-3.5-2.6-2.7-2.7-4.1-6-4.1-9.9 0-1 .1-1.9.2-2.7m20.6 117.9a20.3 20.3 0 0 0-14.9-6.1c-5.8 0-10.8 2.1-14.9 6.1-4.1 4.1-6.2 9.1-6.2 14.9s2.1 10.8 6.2 14.9 9.1 6.2 14.9 6.2c5.8 0 10.8-2.1 14.9-6.2s6.2-9.1 6.2-14.9-2.1-10.8-6.2-14.9M-72.5 85c0-2.6.4-5.1 1.2-7.3-1.5-8.3-5.5-15.7-11.9-22.1-1.8-1.8-3.6-3.4-5.6-4.8l.2.2c8 8 12 17.7 12 29s-4 21-12 29c-4.3 4.3-9 7.4-14.2 9.4-4.6 3.1-9.9 4.6-15.8 4.6-7.3 0-13.6-2.3-19-7.1-3.2-1.8-6.2-4.2-9.1-6.9-4-4-6.9-8.3-8.9-13.1 1.7 7.7 5.5 14.5 11.5 20.5 8.4 8.4 18.5 12.6 30.4 12.6s22-4.2 30.4-12.6c6.7-6.7 10.7-14.5 12.1-23.5-.8-2.4-1.3-5-1.3-7.9m2.5-44c-3.2 0-5.9 1.1-8.2 3.4-2.2 2.3-3.4 5-3.4 8.2 0 3.2 1.1 5.9 3.4 8.1 2.3 2.3 5 3.4 8.2 3.4 3.2 0 5.9-1.1 8.1-3.4 2.3-2.2 3.4-4.9 3.4-8.1a15.4 15.4 0 0 1-1.9-6.4c-.4-.6-.9-1.2-1.5-1.8-2.2-2.3-4.9-3.4-8.1-3.4m21.1-44.7C-66.4-21.2-87.6-30-112.5-30s-46.1 8.8-63.7 26.4-26.4 38.8-26.4 63.7 8.8 46.1 26.4 63.7a94 94 0 0 0 16.2 13.1c-3.1 6.4-4.6 13.5-4.6 21.3 0 13.8 4.9 25.6 14.7 35.4 9.8 9.8 21.6 14.7 35.4 14.7s25.6-4.9 35.4-14.7c5.9-5.9 10.1-12.6 12.4-20 8.6-1.8 16.7-5.1 24.1-9.9-3.6-.8-6.8-2.6-9.6-5.2a11.1 11.1 0 0 1-6.3 1.8c-3.3 0-6.1-1.2-8.5-3.6-2.3-2.3-3.5-5.1-3.5-8.5 0-3.3 1.2-6.1 3.5-8.5 1.3-1.2 2.7-2.1 4.2-2.7-2.1-.4-3.9-1.5-5.5-3.1-2.1-2.1-3.2-4.7-3.2-7.8a10.97 10.97 0 0 1 11-11 10.97 10.97 0 0 1 11 11v.5c2.1-1.4 4.3-2.4 6.8-3-.1 0-.1-.1-.2-.2a8.6 8.6 0 0 1-2.6-6.3V116c-.7 0-1.3.1-2 .1-5.5 0-10.4-1.6-14.7-4.7-.9 1-1.9 2.1-3 3.1a63.42 63.42 0 0 1-23.9 15.3l.9.9c6.4 6.4 9.6 14 9.6 23s-3.2 16.6-9.6 23c-6.3 6.4-14 9.6-23 9.6s-16.6-3.2-23-9.6c-6.3-6.3-9.5-14-9.5-23s3.2-16.6 9.5-23c.5-.5 1-1 1.5-1.4-8.2-3.1-15.7-8-22.4-14.7-12.4-12.4-18.6-27.4-18.6-44.9 0-13.6 3.8-25.7 11.3-36.3-3.5-4-5.3-8.8-5.2-14.3 0-6.1 2.2-11.3 6.4-15.6 4.3-4.3 9.5-6.5 15.6-6.5 5.5 0 10.2 1.8 14.3 5.3C-123.5-3.9-114.4-7-104-7c12.3 0 22.8 4.3 31.5 13 6.9 6.9 11.1 15 12.5 24.3 1.1 1.3 2.1 2.6 3.1 4.1.4-.5.8-1 1.3-1.5 3.2-3.2 7.1-4.8 11.7-4.8s8.5 1.6 11.7 4.8c3.2 3.2 4.9 7.1 4.9 11.7s-1.6 8.5-4.9 11.7A16.8 16.8 0 0 1-44 61c-1.1 0-2.1-.1-3.1-.2.2 1.2.3 2.5.4 3.8 2.1.4 4 1.2 5.8 2.3 4.1 1.1 7.8 3.2 11 6.5 4.9 4.9 7.4 10.8 7.4 17.7 0 6.9-2.5 12.8-7.4 17.7l-1.2 1.2c.3.2.6.5.9.8 1.8 1.8 2.7 3.9 2.7 6.4s-.9 4.6-2.7 6.3c-.3.3-.6.6-.9.8 2.8 1 5.3 2.6 7.5 4.9 2.8 2.8 4.7 6.1 5.5 9.8 7.7-12 11.5-25.6 11.5-40.8C-6.5 79.8-12 64-23 50.4c-2-20.8-10.6-38.8-25.9-54.1z" class="st7"/>
        <path d="M-67 139.5c-2.3 2.4-3.5 5.2-3.5 8.5s1.2 6.1 3.5 8.5c2.4 2.4 5.2 3.6 8.5 3.6 2.3 0 4.4-.6 6.3-1.8l-.2-.2c-4-4-6-8.8-6-14.5 0-2.5.4-4.8 1.2-6.9-1 .3-2.1.4-3.2.4-.8 0-1.6-.1-2.3-.2-1.6.5-3 1.4-4.3 2.6M-30.5 85c0 2.5-.4 4.8-1.1 7-.4 3-1.7 5.6-4 7.9a13.9 13.9 0 0 1-5.6 3.5 21 21 0 0 1-10.3 2.6c-5.8 0-10.8-2-14.9-6.2-2.1-2.1-3.6-4.4-4.7-6.9-1.4 8.9-5.4 16.8-12.1 23.5-8.4 8.4-18.5 12.6-30.4 12.6s-22-4.2-30.4-12.6c-6-6-9.8-12.8-11.5-20.5a39.9 39.9 0 0 1-3.1-15.9c0-11.3 4-21 12-29 5.8-5.8 12.6-9.5 20.2-11.1-.8-2.3-1.2-4.8-1.2-7.4 0-.3 0-.5.1-.8-.7 1-1.6 1.9-2.5 2.9a21.3 21.3 0 0 1-15.6 6.5c-6.1 0-11.2-2.2-15.6-6.5-.4-.4-.8-.9-1.2-1.3-7.5 10.5-11.3 22.6-11.3 36.3 0 17.5 6.2 32.5 18.6 44.9 6.7 6.7 14.2 11.6 22.4 14.7-.5.4-1 .9-1.5 1.4-6.3 6.4-9.5 14-9.5 23s3.2 16.6 9.5 23c6.4 6.4 14 9.6 23 9.6s16.6-3.2 23-9.6c6.4-6.3 9.6-14 9.6-23s-3.2-16.6-9.6-23l-.9-.9c8.8-3.1 16.8-8.2 23.9-15.3 1-1 2-2.1 3-3.1 4.2 3.1 9.1 4.7 14.7 4.7.7 0 1.4 0 2-.1.2-2.1 1.1-3.9 2.5-5.4a9 9 0 0 1 6.4-2.6c2.1 0 3.9.6 5.5 1.8l1.2-1.2c4.9-4.9 7.4-10.8 7.4-17.7 0-6.9-2.4-12.8-7.4-17.7-3.2-3.2-6.9-5.4-11-6.5 1.5.9 2.9 2 4.2 3.3 4.1 4.4 6.2 9.3 6.2 15.1m-82 51c5.8 0 10.8 2.1 14.9 6.1 4.1 4.1 6.2 9.1 6.2 14.9s-2 10.8-6.2 14.9a20.4 20.4 0 0 1-14.9 6.2c-5.8 0-10.8-2.1-14.9-6.2a20.4 20.4 0 0 1-6.2-14.9c0-5.8 2.1-10.8 6.2-14.9 4.1-4 9.1-6.1 14.9-6.1m34.3-91.6c2.3-2.2 5-3.4 8.2-3.4 3.2 0 5.9 1.1 8.1 3.4.6.6 1.1 1.2 1.5 1.8-.1-.5-.1-1.1-.1-1.6 0-3.9 1.2-7.3 3.5-10.2-1-1.4-2-2.8-3.1-4.1C-61.5 21-65.6 12.9-72.6 6-81.2-2.7-91.7-7-104-7c-10.4 0-19.5 3.1-27.3 9.3.4.4.9.8 1.3 1.2 4.3 4.3 6.4 9.5 6.4 15.6v.7a25.13 25.13 0 0 1 6.5-6.3c.9-2.1 2.3-4.1 4.1-5.9 3.7-3.7 8.2-5.6 13.5-5.6 5.2 0 9.7 1.9 13.4 5.6s5.6 8.2 5.6 13.5c0 3.2-.7 6.2-2.2 8.9.1.9.2 1.8.2 2.7a21.67 21.67 0 0 1-7.7 16.9c.5.5 1 .9 1.5 1.4 1.9 1.4 3.8 3 5.6 4.8 6.4 6.4 10.3 13.7 11.9 22.1 1-2.8 2.7-5.3 4.9-7.5 4.1-4.1 9.1-6.2 14.9-6.2 1.7 0 3.3.2 4.9.6-.1-1.3-.2-2.6-.4-3.8-3.3-.6-6.2-2.1-8.7-4.6a16.4 16.4 0 0 1-2.8-3.7c0 3.2-1.1 5.9-3.4 8.1-2.2 2.3-4.9 3.4-8.1 3.4-3.2 0-5.9-1.1-8.2-3.4a11.1 11.1 0 0 1-3.4-8.1c0-3.4 1.1-6.1 3.3-8.3z" class="st9"/>
        <path d="M-27.5 117c0-2.5-.9-4.6-2.7-6.4-.3-.3-.6-.6-.9-.8a8.86 8.86 0 0 0-5.5-1.8 9 9 0 0 0-6.4 2.6 8.51 8.51 0 0 0-2.5 5.4v1.1c0 2.5.9 4.6 2.6 6.3l.2.2c-2.5.6-4.7 1.6-6.8 3v-.5a10.97 10.97 0 0 0-11-11 10.97 10.97 0 0 0-11 11 11.26 11.26 0 0 0 8.7 10.9c.7.1 1.5.2 2.3.2 1.1 0 2.2-.1 3.2-.4-.8 2.1-1.2 4.4-1.2 6.9 0 5.7 2 10.5 6 14.5.1.1.1.2.2.2 2.8 2.7 6 4.4 9.6 5.2 1.5.3 3.1.5 4.7.5 5.7 0 10.5-2 14.5-6s6-8.8 6-14.5a19.68 19.68 0 0 0-6-14.5c-2.2-2.2-4.7-3.9-7.5-4.9a9 9 0 0 0 3.5-7.2m-96-98c0-6.1-2.2-11.3-6.4-15.6-.4-.4-.9-.8-1.3-1.2-4-3.5-8.8-5.3-14.3-5.3-6.1 0-11.2 2.2-15.6 6.5a21.2 21.2 0 0 0-6.4 15.6c0 5.5 1.8 10.2 5.2 14.3.4.4.8.9 1.2 1.3 4.3 4.3 9.5 6.5 15.6 6.5s11.3-2.2 15.6-6.5a20.96 20.96 0 0 0 6.4-14.9V19m37.4-11.4C-89.8 3.8-94.3 2-99.5 2c-5.2 0-9.7 1.9-13.5 5.6-1.8 1.8-3.1 3.8-4.1 5.9-1 2.3-1.5 4.8-1.5 7.6 0 1.1.1 2.2.2 3.3-.2.9-.2 1.8-.2 2.8 0 3.9 1.4 7.2 4.1 9.9 1.1 1.1 2.2 1.9 3.5 2.6-2.1-.3-4.3-.5-6.6-.5-3.1 0-6 .3-8.8.9-7.6 1.6-14.4 5.3-20.2 11.1-8 8-12 17.7-12 29a39.9 39.9 0 0 0 12 29c2.8 2.8 5.8 5.1 9.1 6.9 5.3 4.7 11.7 7.1 19 7.1 5.9 0 11.2-1.5 15.8-4.6 5.2-2 9.9-5.1 14.2-9.4 8-8 12-17.7 12-29s-4-21-12-29l-.2-.2c-.5-.5-1-1-1.5-1.4a39.4 39.4 0 0 0-14.3-8.4c1.9 0 3.7-.3 5.3-1 5.1-.1 9.4-1.9 13.1-5.6 1.4-1.4 2.6-2.9 3.4-4.6 1.4-2.7 2.2-5.6 2.2-8.9 0-5.3-1.9-9.8-5.6-13.5m45.2 59.3c-1.8-1.1-3.7-1.9-5.8-2.3-1.6-.4-3.2-.6-4.9-.6-5.8 0-10.8 2-14.9 6.2-2.2 2.2-3.9 4.7-4.9 7.5-.8 2.3-1.2 4.7-1.2 7.3 0 2.9.5 5.5 1.5 8s2.6 4.8 4.7 6.9c4.1 4.1 9.1 6.2 14.9 6.2a21 21 0 0 0 10.3-2.6c1.6-.9 3.1-2.1 4.5-3.6 2.3-2.3 4-4.9 5.1-7.8.7-2.2 1.1-4.5 1.1-7 0-5.8-2.1-10.8-6.2-14.9-1.3-1.3-2.7-2.4-4.2-3.3m13.4-22.4c0-4.6-1.6-8.5-4.9-11.7-3.2-3.2-7-4.8-11.6-4.8s-8.5 1.6-11.7 4.8c-.5.5-.9 1-1.3 1.5a15.97 15.97 0 0 0-3.4 11.8c.2 2.3.8 4.5 1.9 6.4.7 1.3 1.7 2.5 2.8 3.7 2.5 2.5 5.4 4 8.7 4.6 1 .2 2 .2 3.1.2 4.6 0 8.5-1.6 11.7-4.9 3.1-3.1 4.7-7 4.7-11.6z" class="st8"/>
      </g>
    </g>
    <g transform="translate(164.25 84)">
      <g id="trees_0_Layer0_2_FILL">
        <path d="M125.2 12.7a19 19 0 0 1-3.6-1.2c-.1.1-.2.2-.3.2-2.1 2.2-4.7 3.2-7.8 3.2s-5.6-1.1-7.8-3.2c-.6-.6-1.2-1.3-1.6-2-2.4-.4-4.5-1.2-6.5-2.3.8 1.5 1.9 3 3.2 4.3 3.5 3.5 7.8 5.3 12.8 5.3 4.4 0 8.2-1.4 11.6-4.3M102.5-32c0-3.6.9-6.8 2.8-9.7-4.8 1.8-9.1 4.6-13 8.5C85.1-26 81.5-17.2 81.5-7s3.6 19 10.8 26.1c7.2 7.2 16 10.9 26.2 10.9s18.9-3.6 26.1-10.9c7.2-7.2 10.9-15.9 10.9-26.1s-3.6-19-10.9-26.2c-2.4-2.4-4.9-4.3-7.5-5.9.9 2.2 1.4 4.5 1.4 7.1 0 1.1-.1 2.2-.2 3.2 2.5.4 4.7 1.5 6.6 3.4 2.4 2.4 3.6 5.4 3.6 8.9s-1.2 6.4-3.6 8.9l-.8.8c.3 1.2.4 2.5.4 3.9 0 4.4-1.6 8.2-4.7 11.3-2.7 2.7-5.8 4.2-9.5 4.6-.9 1.3-1.9 2.6-3.1 3.8-4.2 4.1-9.3 6.2-15.2 6.2s-11-2.1-15.2-6.3-6.3-9.3-6.3-15.2c0-.3 0-.6.1-.9-2-3.1-3.1-6.7-3.1-10.6 0-5.5 2-10.2 5.8-14.1 2.7-2.7 5.8-4.5 9.3-5.3-.1-.9-.1-1.7-.1-2.6m14.1-6a10.6 10.6 0 0 0-3 8.9c3 .9 5.7 2.5 8.1 5 1.3 1.3 2.4 2.7 3.2 4.1 2.5-.2 4.7-1.2 6.5-3.1 2.1-2 3.1-4.5 3.1-7.4s-1-5.4-3.1-7.5c-2-2-4.5-3-7.4-3s-5.4 1-7.4 3z" class="st7"/>
        <path d="M127.2 16.7c1.2-1.2 2.2-2.5 3.1-3.8-.6 0-1.2.1-1.8.1-1.2 0-2.3-.1-3.3-.3a17.1 17.1 0 0 1-11.7 4.3c-5 0-9.2-1.8-12.8-5.3-1.3-1.3-2.4-2.8-3.2-4.3-1.5-.9-2.9-1.9-4.2-3.2-1.1-1.1-2-2.3-2.8-3.5 0 .3-.1.5-.1.9 0 5.9 2.1 11 6.3 15.2 4.2 4.2 9.3 6.3 15.2 6.3s11.1-2.2 15.3-6.4m-19.4-61.5c-1 1-1.8 2-2.4 3a17.2 17.2 0 0 0-2.8 9.7c0 .9 0 1.7.2 2.5 1.5-.4 3.1-.5 4.8-.5 2.2 0 4.2.3 6.1.9-.1-.5-.1-.9-.1-1.4 0-2.9 1-5.4 3.1-7.5 2.1-2 4.5-3 7.4-3s5.4 1 7.4 3c2.1 2.1 3.1 4.6 3.1 7.5s-1 5.4-3.1 7.4c-1.8 1.9-4 2.9-6.5 3.1.2.4.4.8.7 1.2 1-.2 1.9-.2 2.9-.2 4.4 0 8.2 1.6 11.3 4.6 2.2 2.2 3.6 4.7 4.2 7.5.3-.2.5-.5.8-.8 2.4-2.4 3.6-5.4 3.6-8.9A12.3 12.3 0 0 0 138.3-29c.2-1 .2-2.1.2-3.2 0-2.6-.5-4.9-1.4-7.1-.9-2.1-2.2-4-3.9-5.7-3.5-3.5-7.7-5.2-12.7-5.2s-9.2 2-12.7 5.4z" class="st9"/>
        <path d="M113.6-29.1a20 20 0 0 0-6.1-.9c-1.7 0-3.3.2-4.8.5-3.5.8-6.6 2.6-9.3 5.3-3.9 3.9-5.8 8.6-5.8 14.1 0 4 1 7.5 3.1 10.6.8 1.2 1.7 2.4 2.8 3.5a18 18 0 0 0 4.2 3.2c2 1.2 4.2 1.9 6.5 2.3.4.7 1 1.4 1.6 2 2.2 2.2 4.8 3.2 7.8 3.2s5.6-1.1 7.8-3.2c.1-.1.2-.2.3-.2 1.1.5 2.3.9 3.6 1.2 1.1.2 2.2.3 3.3.3.6 0 1.2 0 1.8-.1 3.7-.4 6.8-1.9 9.5-4.6 3.1-3.1 4.7-6.9 4.7-11.3 0-1.4-.2-2.7-.4-3.9-.7-2.8-2.1-5.3-4.2-7.5a15.4 15.4 0 0 0-11.3-4.6c-1 0-2 .1-2.9.2-.2-.4-.4-.9-.7-1.2-.9-1.5-1.9-2.9-3.2-4.1-2.7-2.3-5.3-3.9-8.3-4.8z" class="st8"/>
      </g>
    </g>
    <g transform="translate(209.25 85)">
      <g id="trees_0_Layer0_3_FILL">
        <path d="M-44.2-179.3c-3.1-3.1-6.9-4.6-11.3-4.6s-8.2 1.5-11.3 4.6c-3.1 3.1-4.7 6.9-4.7 11.4 0 4.4 1.5 8.2 4.7 11.3 3.1 3.1 6.9 4.7 11.3 4.7s8.2-1.6 11.3-4.7c3.1-3.1 4.7-6.9 4.7-11.3 0-3.1-.8-5.8-2.2-8.3l-.3-.6c-.4-.5-.8-1.1-1.2-1.6-.4-.3-.7-.6-1-.9M-91-225.9c-6.5 0-12 2.3-16.7 6.8-3.4 3.4-5.5 7.3-6.4 11.8-.3 1.5-.4 3.1-.4 4.9 0 5.8 1.8 10.8 5.4 15 .4.5.9 1.1 1.4 1.6 3.5 3.5 7.7 5.7 12.3 6.6-1.5.5-2.8 1.4-4 2.6-2.1 2.2-3.2 4.8-3.2 7.8a10.97 10.97 0 0 0 11 11c3 0 5.6-1.1 7.8-3.2s3.2-4.7 3.2-7.8c0-3-1.1-5.6-3.2-7.8a9.85 9.85 0 0 0-3.7-2.4c5-.7 9.3-2.9 13-6.7.4-.4.9-.9 1.2-1.3.8.1 1.7.2 2.7.2 4.4 0 8.2-1.6 11.3-4.7 3.1-3.1 4.7-6.9 4.7-11.3s-1.6-8.2-4.7-11.4a15.4 15.4 0 0 0-11.3-4.6c-1.2 0-2.3.1-3.4.3l-.5-.5c-4.5-4.7-10-6.9-16.5-6.9z" class="st8"/>
        <path d="M-66-224.9c-3.4 0-6.5.7-9.4 2 8.5 0 15.8 3.1 21.8 9.1 6.1 6.1 9.1 13.4 9.1 21.9 0 3.8-.6 7.4-1.8 10.6.6.5 1.1 1 1.6 1.5l1.4 1.4c.4.5.8 1 1.2 1.6l.3.6c.8 1.3 1.5 2.6 2 4 1 .2 2.1.3 3.2.3 4.4 0 8.2-1.6 11.3-4.7l1.1-1.1c2.4-2.9 3.6-6.3 3.6-10.2 0-3.1-.8-5.9-2.3-8.4-.7-1-1.5-2-2.4-2.9a15.4 15.4 0 0 0-11.3-4.6c-2.5 0-4.9.5-7 1.6v-.1c0-6.2-2.2-11.5-6.6-15.9-4.3-4.6-9.6-6.7-15.8-6.7m-48.5 22.5c0-1.7.2-3.3.4-4.9a36 36 0 0 0-8.5 6.3c-6.6 6.6-9.9 14.7-9.9 24.1s3.3 17.4 9.9 24.1c6.6 6.6 14.7 9.9 24.1 9.9 7.5 0 14-2.1 19.8-6.2 1 1.7 2.2 3.3 3.7 4.8 4.3 4.3 9.5 6.4 15.6 6.4s11.2-2.1 15.5-6.4 6.5-9.5 6.5-15.6c0-2.5-.4-4.8-1-7v2c0 5.8-2 10.8-6.2 14.8-4.1 4.1-9 6.2-14.8 6.2s-10.8-2.1-14.8-6.2c-1.8-1.8-3.2-3.7-4.2-5.8l-.4.4c-4.3 4.3-9.5 6.4-15.6 6.4s-11.2-2.2-15.6-6.4c-4.3-4.3-6.4-9.5-6.4-15.6s2.2-11.2 6.4-15.6c.3-.3.6-.6 1-.9-3.7-4.1-5.5-9.1-5.5-14.8z" class="st9"/>
        <path d="M-95.9-232.4c-.9.9-1.7 1.8-2.4 2.7-1.7-.2-3.4-.2-5.2-.2-13.8 0-25.6 4.9-35.4 14.6-9.8 9.8-14.6 21.6-14.6 35.4 0 13.8 4.9 25.6 14.6 35.3 9.8 9.8 21.6 14.7 35.4 14.7 10.8 0 20.3-3 28.6-8.9 1.1 1.6 2.4 3.1 3.8 4.5 6.3 6.3 13.8 9.4 22.7 9.4s16.4-3.1 22.6-9.4c6.3-6.2 9.4-13.8 9.4-22.6 0-8-2.6-14.9-7.6-20.8-.3.4-.7.7-1.1 1.1-3.1 3.1-6.9 4.7-11.3 4.7-1.1 0-2.2-.1-3.2-.3-.5-1.4-1.2-2.7-2-4 1.5 2.5 2.2 5.2 2.2 8.3 0 4.4-1.6 8.2-4.7 11.3-3.1 3.1-6.9 4.7-11.3 4.7s-8.2-1.6-11.3-4.7c-3.1-3.1-4.7-6.9-4.7-11.3s1.5-8.2 4.7-11.4c3.1-3.1 6.9-4.6 11.3-4.6s8.2 1.5 11.3 4.6l.9.9c-.4-.5-.9-1-1.4-1.4-.5-.5-1.1-1-1.6-1.5 1.2-3.3 1.8-6.9 1.8-10.6 0-8.6-3-15.9-9.1-21.9-6-6-13.3-9-21.8-9.1 2.9-1.3 6-2 9.4-2 6.2 0 11.5 2.2 15.9 6.6 4.4 4.4 6.6 9.7 6.6 15.9v.1c2.1-1 4.5-1.6 7-1.6 4.4 0 8.2 1.5 11.3 4.6.9.9 1.7 1.9 2.4 2.9.2-1.8.3-3.7.3-5.6 0-11.9-4.2-22-12.6-30.4S-53.5-245-65.4-245s-22.1 4.2-30.5 12.6m-11.8 13.3c4.6-4.6 10.2-6.8 16.7-6.8s12 2.3 16.6 6.8l.5.5c1.1-.2 2.2-.3 3.4-.3 4.4 0 8.2 1.5 11.3 4.6s4.7 6.9 4.7 11.4c0 4.4-1.6 8.2-4.7 11.3-3.1 3.1-6.9 4.7-11.3 4.7-.9 0-1.8-.1-2.7-.2-.4.4-.8.9-1.2 1.3-3.7 3.7-8 5.9-13 6.7 1.3.5 2.6 1.4 3.7 2.4 2.2 2.2 3.2 4.8 3.2 7.8s-1.1 5.6-3.2 7.8-4.7 3.2-7.8 3.2-5.6-1.1-7.8-3.2c-2.1-2.1-3.2-4.7-3.2-7.8 0-3 1.1-5.6 3.2-7.8 1.2-1.2 2.5-2 4-2.6-4.7-.8-8.8-3-12.3-6.6-.5-.5-1-1.1-1.4-1.6-.3.3-.7.6-1 .9-4.3 4.3-6.4 9.5-6.4 15.6s2.2 11.2 6.4 15.6c4.3 4.3 9.5 6.4 15.6 6.4s11.2-2.2 15.6-6.4l.4-.4c1 2.1 2.4 4 4.2 5.8 4.1 4.1 9.1 6.2 14.8 6.2s10.8-2.1 14.8-6.2c4.1-4.1 6.2-9.1 6.2-14.8v-2c.7 2.2 1 4.5 1 7 0 6.1-2.1 11.2-6.5 15.6s-9.5 6.4-15.5 6.4-11.2-2.1-15.6-6.4c-1.5-1.5-2.7-3.1-3.7-4.8-5.7 4.2-12.3 6.2-19.8 6.2-9.4 0-17.4-3.3-24.1-9.9-6.6-6.6-9.9-14.7-9.9-24.1s3.3-17.4 9.9-24.1a36 36 0 0 1 8.5-6.3c.9-4.6 3.1-8.5 6.4-11.9z" class="st7"/>
      </g>
    </g>
    <g transform="translate(371.3 5.05)">
      <g id="trees_0_Layer0_4_FILL">
        <path d="m-41.8-176.2-.3-.6c-.4-.5-.8-1.1-1.2-1.6l-.9-.9c-3.1-3.1-6.9-4.6-11.3-4.6s-8.2 1.5-11.3 4.6c-3.1 3.1-4.7 6.9-4.7 11.4 0 4.4 1.5 8.2 4.7 11.3 3.1 3.1 6.9 4.7 11.3 4.7s8.2-1.6 11.3-4.7c3.1-3.1 4.7-6.9 4.7-11.3 0-3.1-.7-5.9-2.3-8.3m-65.9-42.9c-3.4 3.4-5.5 7.3-6.4 11.8-.3 1.5-.4 3.1-.4 4.9 0 5.8 1.8 10.8 5.4 15 .4.5.9 1.1 1.4 1.6 3.5 3.5 7.7 5.7 12.3 6.6-1.5.5-2.8 1.4-4 2.6-2.1 2.2-3.2 4.8-3.2 7.8a10.97 10.97 0 0 0 11 11c3 0 5.6-1.1 7.8-3.2s3.2-4.7 3.2-7.8c0-3-1.1-5.6-3.2-7.8a9.85 9.85 0 0 0-3.7-2.4c5-.7 9.3-2.9 13-6.7.4-.4.9-.9 1.2-1.3.8.1 1.7.2 2.7.2 4.4 0 8.2-1.6 11.3-4.7 3.1-3.1 4.7-6.9 4.7-11.3s-1.6-8.2-4.7-11.4a15.4 15.4 0 0 0-11.3-4.6c-1.2 0-2.3.1-3.4.3l-.5-.5c-4.6-4.6-10.1-6.8-16.6-6.8s-11.9 2.1-16.6 6.7z" class="st8"/>
        <path d="M-66-224.9c-3.4 0-6.5.7-9.4 2 8.5 0 15.8 3.1 21.8 9.1 6.1 6.1 9.1 13.4 9.1 21.9 0 3.8-.6 7.4-1.8 10.6.6.5 1.1 1 1.6 1.5l1.4 1.4c.4.5.8 1 1.2 1.6l.3.6c.8 1.3 1.5 2.6 2 4 1 .2 2.1.3 3.2.3 4.4 0 8.2-1.6 11.3-4.7l1.1-1.1c2.4-2.9 3.6-6.3 3.6-10.2 0-3.1-.8-5.9-2.3-8.4-.7-1-1.5-2-2.4-2.9a15.4 15.4 0 0 0-11.3-4.6c-2.5 0-4.9.5-7 1.6v-.1c0-6.2-2.2-11.5-6.6-15.9-4.3-4.6-9.6-6.7-15.8-6.7m-48.5 22.5c0-1.7.2-3.3.4-4.9a36 36 0 0 0-8.5 6.3c-6.6 6.6-9.9 14.7-9.9 24.1s3.3 17.4 9.9 24.1c6.6 6.6 14.7 9.9 24.1 9.9 7.5 0 14-2.1 19.8-6.2 1 1.7 2.2 3.3 3.7 4.8 4.3 4.3 9.5 6.4 15.6 6.4s11.2-2.1 15.5-6.4 6.5-9.5 6.5-15.6c0-2.5-.4-4.8-1-7v2c0 5.8-2 10.8-6.2 14.8-4.1 4.1-9 6.2-14.8 6.2s-10.8-2.1-14.8-6.2c-1.8-1.8-3.2-3.7-4.2-5.8l-.4.4c-4.3 4.3-9.5 6.4-15.6 6.4s-11.2-2.2-15.6-6.4c-4.3-4.3-6.4-9.5-6.4-15.6s2.2-11.2 6.4-15.6c.3-.3.6-.6 1-.9-3.7-4.1-5.5-9.1-5.5-14.8z" class="st9"/>
        <path d="M-98.3-229.7c-1.7-.2-3.4-.2-5.2-.2-13.8 0-25.6 4.9-35.4 14.6-9.8 9.8-14.6 21.6-14.6 35.4 0 13.8 4.9 25.6 14.6 35.3 9.8 9.8 21.6 14.7 35.4 14.7 10.8 0 20.3-3 28.6-8.9 1.1 1.6 2.4 3.1 3.8 4.5 6.3 6.3 13.8 9.4 22.7 9.4s16.4-3.1 22.6-9.4c6.3-6.2 9.4-13.8 9.4-22.6 0-8-2.6-14.9-7.6-20.8-.3.4-.7.7-1.1 1.1-3.1 3.1-6.9 4.7-11.3 4.7-1.1 0-2.2-.1-3.2-.3-.5-1.4-1.2-2.7-2-4 1.5 2.5 2.2 5.2 2.2 8.3 0 4.4-1.6 8.2-4.7 11.3-3.1 3.1-6.9 4.7-11.3 4.7s-8.2-1.6-11.3-4.7c-3.1-3.1-4.7-6.9-4.7-11.3s1.5-8.2 4.7-11.4c3.1-3.1 6.9-4.6 11.3-4.6s8.2 1.5 11.3 4.6l.9.9c-.4-.5-.9-1-1.4-1.4-.5-.5-1.1-1-1.6-1.5 1.2-3.3 1.8-6.9 1.8-10.6 0-8.6-3-15.9-9.1-21.9-6-6-13.3-9-21.8-9.1 2.9-1.3 6-2 9.4-2 6.2 0 11.5 2.2 15.9 6.6 4.4 4.4 6.6 9.7 6.6 15.9v.1c2.1-1 4.5-1.6 7-1.6 4.4 0 8.2 1.5 11.3 4.6.9.9 1.7 1.9 2.4 2.9.2-1.8.3-3.7.3-5.6 0-11.9-4.2-22-12.6-30.4S-53.5-245-65.4-245s-22 4.2-30.4 12.6c-1 .9-1.8 1.8-2.5 2.7m-15.8 22.4c.9-4.5 3-8.4 6.4-11.8 4.6-4.6 10.2-6.8 16.7-6.8s12 2.3 16.6 6.8l.5.5c1.1-.2 2.2-.3 3.4-.3 4.4 0 8.2 1.5 11.3 4.6s4.7 6.9 4.7 11.4c0 4.4-1.6 8.2-4.7 11.3-3.1 3.1-6.9 4.7-11.3 4.7-.9 0-1.8-.1-2.7-.2-.4.4-.8.9-1.2 1.3-3.7 3.7-8 5.9-13 6.7 1.3.5 2.6 1.4 3.7 2.4 2.2 2.2 3.2 4.8 3.2 7.8s-1.1 5.6-3.2 7.8-4.7 3.2-7.8 3.2-5.6-1.1-7.8-3.2c-2.1-2.1-3.2-4.7-3.2-7.8 0-3 1.1-5.6 3.2-7.8 1.2-1.2 2.5-2 4-2.6-4.7-.8-8.8-3-12.3-6.6-.5-.5-1-1.1-1.4-1.6-.3.3-.7.6-1 .9-4.3 4.3-6.4 9.5-6.4 15.6s2.2 11.2 6.4 15.6c4.3 4.3 9.5 6.4 15.6 6.4s11.2-2.2 15.6-6.4l.4-.4c1 2.1 2.4 4 4.2 5.8 4.1 4.1 9.1 6.2 14.8 6.2s10.8-2.1 14.8-6.2c4.1-4.1 6.2-9.1 6.2-14.8v-2c.7 2.2 1 4.5 1 7 0 6.1-2.1 11.2-6.5 15.6s-9.5 6.4-15.5 6.4-11.2-2.1-15.6-6.4c-1.5-1.5-2.7-3.1-3.7-4.8-5.7 4.2-12.3 6.2-19.8 6.2-9.4 0-17.4-3.3-24.1-9.9-6.6-6.6-9.9-14.7-9.9-24.1s3.3-17.4 9.9-24.1c2.7-2.7 5.5-4.8 8.5-6.4z" class="st7"/>
      </g>
    </g>
  </g>
</svg>
