<svg xmlns="http://www.w3.org/2000/svg" id="car" width="520" height="194" viewBox="0 0 520 194">
  <style>
    .st15{fill:none;stroke:#000;stroke-miterlimit:3;stroke-opacity:.2}.st20{fill:#6f6f6f}.st22{fill:#666}
  </style>
  <filter id="Filter_1" width="140%" height="291.78%" x="-20%" y="-95.89%" color-interpolation-filters="sRGB">
    <feFlood flood-color="#666" flood-opacity="1" result="result1"/>
    <feComposite in="result1" in2="SourceGraphic" operator="in" result="result2"/>
    <feGaussianBlur in="result2" result="result3" stdDeviation="1.3333333333333333,1.3333333333333333"/>
    <feOffset dx="2.83" dy="2.83" in="result3" result="result4"/>
    <feComposite in="SourceGraphic" in2="result4" result="result5"/>
  </filter>
  <g filter="url(#Filter_1)">
    <g transform="matrix(1.236 0 0 -.723 2.85 85.7)">
      <g id="shadow_0_Layer0_0_FILL_1_">
        <radialGradient id="SVGID_1_" cx="162.02" cy="-598.39" r="276.98" gradientTransform="matrix(1.236 0 0 .537 0 187.76)" gradientUnits="userSpaceOnUse">
          <stop offset="0" stop-color="#343434"/>
          <stop offset="1" stop-opacity="0"/>
        </radialGradient>
        <path fill="url(#SVGID_1_)" d="M354.9-137.6c-39.7-1.1-87.7-1.6-143.9-1.6s-104.2.5-143.9 1.6-59.6 2.4-59.6 3.9 19.9 2.8 59.6 3.9 87.7 1.6 143.9 1.6 104.2-.5 143.9-1.6 59.6-2.4 59.6-3.9-19.9-2.8-59.6-3.9z"/>
      </g>
    </g>
  </g>
  <g id="behind_wheels_0_Layer0_0_FILL">
    <radialGradient id="SVGID_2_" cx="249.26" cy="265.47" r="163" gradientTransform="matrix(1 0 0 -1 0 400)" gradientUnits="userSpaceOnUse">
      <stop offset="0"/>
      <stop offset="1"/>
    </radialGradient>
    <path fill="url(#SVGID_2_)" d="M95.3 91.2c-3.1-.4-7.1-.5-12.2-.5-9.9.1-18.3.7-25.2 1.6-5.6.8-9.8 2.1-12.8 3.8-2.2 1.3-4.4 3.2-6.4 5.6a51.8 51.8 0 0 0-4.9 7c-2.8 4.5-5.2 8.8-7.2 13a51.1 51.1 0 0 0-2.8 6.6c-.8 2.5-1 4.8-.8 7 0 .2.2 1.2.6 3.1.2 1.2.3 2.3.2 3.1 0 .5-.2 1.3-.4 2.4-.2 1-.3 1.8-.3 2.4 0 1.7.7 3.3 2.1 4.8 1.2 1.3 2.8 2.3 4.6 2.9 1.5.5 3.3.7 5.3.6 1.3 0 3.1-.2 5.4-.6 3.7 9.3 8.4 15.6 14.2 18.8 2.1 1.2 4.5 2.1 7.4 2.8 2 .5 4.6.9 7.8 1.2 9.8 1.1 20 1.6 30.4 1.4 2.3 0 4.1-.1 5.5-.3 2-.2 3.8-.6 5.4-1.2 6.5-2.4 11.5-8.5 15.1-18.3 2.4.2 4.1.3 5.3.3 2.1.1 3.9 0 5.3-.2 1.9-.3 3.5-1 4.9-2.1 1.5-1.2 2.5-2.6 2.8-4.3.3-1.7 0-3.6-1.1-5.9-1.4-2.5-2.3-4.4-2.9-5.6-.4-1.1-.8-2.4-1.1-4-.3-1.8-.5-3.2-.7-4.1-1.7-9.3-5-16.7-10.1-22-1.4-1.4-3.1-2.9-5.2-4.6-1.2-1-3.1-2.3-5.6-4.1-1.2-.9-3-2.2-5.4-4-2.1-1.5-4-2.6-5.7-3.5-3.2-1.5-7.1-2.5-11.5-3.1m323.4 2.3c-3.6-.3-6.6-.4-8.8-.3-3.2.1-6.1.6-8.6 1.5-3.5 1.2-7.1 3.4-10.8 6.7-6 5.2-10.8 11.5-14.4 18.8-3.6 7.3-5.6 14.9-6.1 22.8-2.4.7-4.3 2.2-5.6 4.4-1.4 2.3-1.7 4.5-.8 6.6 1 2.3 3 4 6.2 4.9 1 .3 2.4.6 4 .9 2.3.4 3.7.6 4 .6 5 1 10.7 3.8 17 8.2 1.2.8 2.9 2 5.2 3.6 2 1.3 3.8 2.4 5.5 3.1 5.6 2.4 12.6 2.9 21.2 1.6 5.3-.8 9.5-2.1 12.7-3.9 1-.5 3.4-2.1 7.2-4.8 2.9-2.1 5.4-3.4 7.6-4.1 1.1-.3 3.8-.7 8.1-1.2 3.3-.3 5.9-1.1 7.6-2.2 2.2-1.5 3.8-3.9 4.7-6.9.7-2.5 1-5.5.8-8.9-.2-3.5-.8-7.3-1.8-11.6-.6-2.6-1.6-6.3-3.1-11.3-.9-2.9-1.5-5-2-6.3-.9-2.3-1.9-4.3-3-5.9-2.7-4.1-6.9-7.3-12.4-9.7-4.1-1.8-9.4-3.2-15.9-4.3-5.1-.9-11.4-1.6-18.5-2.3z"/>
  </g>
  <g id="body_mc" transform="translate(-.75 -12.45)">
    <path id="body_solid_0_Layer0_0_FILL" fill="#c30" d="m380.4 69.6-2.8-.1-5.3-3.1-3.7-.6c-11.7-7.5-29.1-17.3-52.1-29.5-23.1-12.1-43.2-18.7-60.4-19.6-17.2-1-41-1.6-71.3-1.8-30.3-.3-55.1.2-74.3 1.3l-37 2.8-16.5.4-4.4 1.2c-2.5 1.2-2.7 2.9-.4 5l5.4 1.9-6.7 6.2C45.4 39 40.6 44.1 36.1 49c-7.3 8.1-12.7 15.2-16.2 21.1l-.2.2c-1.1 1-1.6 2-1.6 3C16 77.5 14.9 81.1 15 84l.1 21.3c0 .8-.3 1.5-.7 2.2l-1.3 1.8c-1.2 1.4-2.2 3-3 4.7-.7 1-2 1.5-3.9 1.5l-1.3 2.4-1.5 14 2.6 15c.5 3.1 1.2 5.4 2.1 6.9 6 10.6 16.4 15.7 31.1 15.5L39 153c-.4-7.4 1.3-14.8 4.9-22.3 7.3-14.9 20.9-22.5 40.9-22.8 20.7-.3 34.8 8.7 42.5 26.9 2.7 6.5 4.4 13.7 5.2 21.8.5 6 .5 11.4-.1 16.2l240.3 3.1c-.9-11.3.4-22.5 4-33.8 1.7-5.3 3.8-9.9 6.2-13.9 9.9-14.1 23.6-20.5 41.1-19.4 14 .8 24.8 6.3 32.3 16.3 2.2 2.8 4.1 6.1 5.7 9.7l1.4 4c2.9 9.4 3.7 20.9 2.5 34.5l34-.5 7.8-2.2c5.2-1.8 7.8-3.7 8-5.5.1-1.9.5-6.4 1.2-13.4l1-10.1-.4-6.7c-4.6-16.3-14.4-28.4-29.4-36.2-10.1-5.2-20.7-9.4-31.8-12.5L446 83.6c-14-2.8-28-5.3-42.1-7.3-7.1-1.2-14.1-2.9-20.9-5.2l-2.6-1.5z"/>
  </g>
  <g id="windows_dark_trim_0_Layer2_0_FILL">
    <path fill="#181818" d="m38.3 156.8-.1-7.8-25.5-.6c6.2 5.8 14.7 8.6 25.6 8.4m333.7 6.6c-.2-2.4-.3-4.5-.2-6.2l-239.6-5.8c0 3.2-.2 6.2-.5 8.9l240.3 3.1z"/>
    <path fill="#2b2b2d" d="M38.2 140.5c-.3-6 .8-12.1 3.1-18.2-12.9 1.8-25.8.6-38.6-3.6l-.1.7 1.1 7.5 1.4 7.5c.5 3.1 1.2 5.4 2.1 6.9 1.6 2.7 3.4 5.1 5.6 7.2l25.5.6-.1-8.6m333.6 16.7c0-2 .1-3.5.5-4.6l-207.5-6c-10.2-.5-18-4.1-23.6-10.6-1.2-1.5-2.3-3-3.2-4.7l-8.6-.7c1.1 4.2 1.9 8.8 2.4 13.6.2 2.5.4 4.9.4 7.2l239.6 5.8m143.2-3.5v-.2h-49.3l-.3 5.9-.2 2.5 34-.5 7.8-2.2c5.3-1.7 7.9-3.6 8-5.5z"/>
  </g>
  <g id="windows_dark_trim_0_Layer1_0_FILL">
    <linearGradient id="SVGID_3_" x1="28.7" x2="47.35" y1="376.9" y2="366.13" gradientTransform="matrix(1 0 0 -1 0 400)" gradientUnits="userSpaceOnUse">
      <stop offset="0" stop-color="#fff"/>
      <stop offset="1"/>
    </linearGradient>
    <path fill="url(#SVGID_3_)" d="m24.4 50.1 1.6-.9 1.2-.1h11.1c.3-3.3 4.7-10.1 13.4-20.3l12.9-14.3H57a203 203 0 0 0-32.6 35.6z"/>
    <linearGradient id="SVGID_4_" x1="192.71" x2="181.76" y1="367.83" y2="367.83" gradientTransform="matrix(1 0 0 -1 0 400)" gradientUnits="userSpaceOnUse">
      <stop offset="0" stop-color="gray"/>
      <stop offset="1"/>
    </linearGradient>
    <path fill="url(#SVGID_4_)" d="M185.4 6.6h-1.5l9.5 51 1.6.2-9.6-51.2z"/>
    <linearGradient id="SVGID_5_" x1="185.81" x2="185.81" y1="332.66" y2="426.66" gradientTransform="matrix(1 0 0 -1 0 400)" gradientUnits="userSpaceOnUse">
      <stop offset="0" stop-color="#fff"/>
      <stop offset="1"/>
    </linearGradient>
    <path fill="url(#SVGID_5_)" d="M186.2 6.4h.3-.3l-1.1-.1 1.1.1z"/>
    <path d="m186.6 6.3-.1.1h2.1l-2-.1m8.2.5h-.4l-4.6-.2-2.3-.1h-1.3l-.8.2 9.6 51.2 12.2.9-12.4-52z"/>
    <radialGradient id="SVGID_6_" cx="260.73" cy="256.82" r="248.45" gradientTransform="matrix(1 0 0 -.604 -54 300.85)" gradientUnits="userSpaceOnUse">
      <stop offset="0" stop-color="#fff"/>
      <stop offset="1" stop-color="#090909"/>
    </radialGradient>
    <path fill="url(#SVGID_6_)" d="M93.9 33.9c-.2 1.8 0 3.5.6 5.1 1.9 5.1 7.2 8.2 16.1 9.4 14.2 2 41.6 5 82.1 9.1h.8l-9.5-51v-.3c-11.9 0-23.9.1-36 .4-25.9.6-39.5 1.6-41 3.1-1.4 1.5-3.9 5.6-7.6 12.3l-5 9.7-.5 2.2m237.6 8.2c-8-5-17-10-27-15.2-19.9-10.3-34.5-15.8-44-16.6l-65.7-3.6 12.3 51.9 117 8.8 2.4-3.4.6-7.9c.1-1.2.5-2.4 1-3.6 1-2.4 2.5-3.6 4.4-3.5l-1-6.9z"/>
    <radialGradient id="SVGID_7_" cx="260.73" cy="305.66" r="22.8" gradientTransform="matrix(1 0 0 -1 85.95 379)" gradientUnits="userSpaceOnUse">
      <stop offset="0" stop-color="#7b7b7b"/>
      <stop offset="1"/>
    </radialGradient>
    <path fill="url(#SVGID_7_)" d="m332.4 42.8-.6-.3 1 6.9c-1.9-.1-3.4 1.1-4.4 3.5-.5 1.2-.9 2.4-1 3.6l-.5 7.5v.3l-2.4 3.4 35.4 3.7c-.9-3.3-2.7-6.9-5.5-11-4.1-5.9-9.2-10.8-15.3-14.5l-6.7-3.1z"/>
  </g>
  <path id="windows_dark_trim_0_Layer1_0_1_STROKES" fill="none" stroke="red" stroke-miterlimit="3" stroke-opacity=".8" d="M327.1 56.1c.1-1.2.5-2.4 1-3.6 1-2.4 2.5-3.6 4.4-3.5l-1-6.9m-4.7 22 .4-8"/>
  <path id="windows_dark_trim_0_Layer1_0_2_STROKES" fill="none" stroke="#000" stroke-miterlimit="3" stroke-width="2" d="m326.8 64.1.5-7.5c.1-1.2.5-2.4 1-3.6 1-2.4 2.5-3.6 4.4-3.5l-1-6.9m-5 21.8v-.3"/>
  <path id="windows_dark_trim_0_Layer1_0_3_STROKES" fill="none" stroke="#000" stroke-linecap="square" stroke-miterlimit="3" stroke-width="2" d="m332.4 42.8 6.5 3.2c6.4 3.7 11.8 8.6 15.9 14.7 2.5 3.6 4.2 6.9 5.2 9.9"/>
  <path id="windows_dark_trim_0_Layer1_0_4_STROKES" fill="none" stroke="#000" stroke-miterlimit="3" stroke-opacity=".5" d="M331.5 42.1c-8-5-17-10-27-15.2-19.9-10.3-34.5-15.8-44-16.6l-65.7-3.6M57.1 14.4h7.6L51.8 28.7c-8.7 10.2-13.2 17-13.4 20.3H27.2l-1.2.2-1.6.9M194.8 6.8h-.4l-4.6-.2-2.3-.1h-1m.1-.2 1.9.1 1.2.1m-3.2-.1-.3-.1h-1.1l1.1.1m-1.1-.1h-.7"/>
  <path id="windows_dark_trim_0_Layer1_0_5_STROKES" d="m207.2 58.6 117 8.8M94.3 31.7l-.5 2.2c-.2 1.8 0 3.5.6 5.1 1.9 5.1 7.2 8.2 16.1 9.4 14.2 2 41.6 5 82.1 9.1h.5" class="st15"/>
  <path id="windows_dark_trim_0_Layer1_0_6_STROKES" fill="none" stroke="#000" stroke-miterlimit="3" stroke-opacity=".3" d="M183.9 6.2c-11.9 0-23.9.1-36 .4-25.9.6-39.5 1.6-41 3.1-1.4 1.5-3.9 5.6-7.6 12.3l-5 9.7"/>
  <g id="windows_dark_trim_0_Layer0_0_FILL">
    <radialGradient id="SVGID_8_" cx="260.73" cy="305.66" r="13.05" gradientTransform="matrix(1 0 0 -1 66.1 365.75)" gradientUnits="userSpaceOnUse">
      <stop offset="0" stop-color="#7b7b7b"/>
      <stop offset="1"/>
    </radialGradient>
    <path fill="url(#SVGID_8_)" d="M323.7 62.7v1.2l22.6 4-.2-1.1-22.4-4.1z"/>
    <path fill="#ccc" d="m324.2 58.8-.4 1.8-.1 1.5-.1.6 22.4 4.1-.4-2.2-.4-1.9-21-3.9z"/>
    <radialGradient id="SVGID_9_" cx="260.73" cy="305.66" r="13.05" gradientTransform="matrix(1 0 0 -1 66.1 365.75)" gradientUnits="userSpaceOnUse">
      <stop offset="0" stop-color="#b7b7b7"/>
      <stop offset="1"/>
    </radialGradient>
    <path fill="url(#SVGID_9_)" d="M341.6 52.8c-2.1-3.1-4.6-4.7-7.5-4.7-2.9 0-5.4 1.5-7.4 4.7-1.2 1.8-2 3.8-2.5 6l21 3.8-.1-.6c-.9-3.9-2.1-7-3.5-9.2z"/>
  </g>
  <path id="windows_dark_trim_0_Layer0_0_1_STROKES" d="M324.2 58.8c.5-2.2 1.3-4.2 2.5-6 2.1-3.1 4.5-4.7 7.4-4.7 2.9 0 5.4 1.5 7.5 4.7 1.4 2.1 2.6 5.2 3.5 9.2l.1.6.4 1.9.4 2.2m-22.3-4 .1-.6.1-1.5.4-1.8 21 3.8m.8 4.2-22.4-4.1" class="st15"/>
  <g id="wheel1" transform="matrix(1.1 0 0 1.1 -177.5 47)">
    <g id="wheel_0_Layer0_0_FILL">
      <path d="M265.5 57.3c-7.9-7.9-17.4-11.8-28.5-11.8s-20.6 3.9-28.5 11.8a40.6 40.6 0 0 0-8.8 12.9c-2 4.8-3 9.9-3 15.5 0 11.1 3.9 20.6 11.8 28.5 7.9 7.9 17.4 11.8 28.5 11.8s20.6-3.9 28.5-11.8c4.2-4.2 7.3-8.8 9.2-13.9 1.7-4.5 2.5-9.3 2.5-14.5.1-11.2-3.8-20.7-11.7-28.5m-19.2-2.6 1.8.6c4.3 1.5 8.3 4.1 11.8 7.6l2.9 3.2c.3.4.7.9.9 1.3 3.7 5.2 5.6 11.1 5.7 17.7v1.7c-.1 3.7-.8 7.2-2 10.5-1.1 3-2.8 5.8-4.9 8.3-.8 1-1.7 2-2.6 3a29.9 29.9 0 0 1-11.9 7.6c-3.4 1.2-7 1.8-10.9 1.8-3.4 0-6.6-.4-9.6-1.3-.4-.1-.8-.3-1.2-.4-2.3-.8-4.5-1.9-6.6-3.2l-2.2-1.6c-1.1-.9-2.2-1.8-3.3-2.9-1-1-1.9-2-2.8-3.1-.4-.5-.7-1-1.1-1.5-3.7-5.3-5.6-11.4-5.6-18.2v-.7c.1-4.3.9-8.2 2.4-11.9.7-1.6 1.5-3.1 2.4-4.6.3-.4.5-.8.8-1.2 1.1-1.6 2.4-3.1 3.8-4.5 3.2-3.2 6.7-5.5 10.5-7.1l.7-.2 1.6-.3 9.3-1.8h.8c3.3-.1 6.4.3 9.3 1.2z"/>
      <path d="M206.3 84.3c-.6.2-1.1.5-1.6.8v.7c0 6.9 1.8 12.9 5.6 18.2.4.5.7 1 1.1 1.5 1.2-.2 2.3-.5 3.2-.9.1 0 .1-.1.1-.1-.7-.8-1.3-1.5-1.8-2.3l-.1-.1c-3.3-4.8-5-10.2-5-16.4 0-.7 0-1.4.1-2.1-.5.3-1 .5-1.6.7m20.9-28.8-.3-.2-1.6.3-.7.2c-3.8 1.6-7.3 3.9-10.5 7.1-1.4 1.4-2.7 2.9-3.8 4.5-.3.4-.5.8-.8 1.2.7.9 1.4 1.7 2.2 2.4l1.2-1.8 3.4-4.1c2.8-2.9 6-5 9.4-6.4l.6-.2 3.3-.7c-.6-.7-1.4-1.5-2.4-2.3m9.8 62.6c3.9 0 7.6-.6 10.9-1.8.1-.8.1-1.7.1-2.6 0-.3 0-.6-.1-.9-3.4 1.4-7.1 2.1-11 2.1-3 0-5.9-.4-8.6-1.2-.8-.2-1.5-.5-2.3-.8v.8c0 .8 0 1.7.1 2.7.4.1.8.3 1.2.4 3.2.9 6.4 1.3 9.7 1.3m29.6-34c-.2-.1-.3-.1-.5-.2 0 .6.1 1.2.1 1.9v.9c-.1 3.4-.7 6.5-1.8 9.4-1.2 3.1-2.9 5.9-5.2 8.5l.9.3c.9.3 1.7.5 2.6.7 2.1-2.6 3.7-5.4 4.9-8.3 1.2-3.3 1.9-6.8 2-10.5v-1.7c-1.1-.4-2-.7-3-1m-18.5-28.8-1.8-.6c-.6.6-1.1 1.2-1.6 1.8-.3.3-.5.6-.8.9 1.1.2 2.1.5 3.1.9 3.9 1.4 7.4 3.6 10.6 6.8l2.6 2.8c.5.7 1 1.4 1.5 2.2.8-.9 1.4-1.8 2-2.8-.3-.4-.6-.9-.9-1.3l-2.9-3.2c-3.5-3.5-7.5-6-11.8-7.5z" class="st20"/>
      <radialGradient id="SVGID_10_" cx="373.44" cy="241.29" r="55.6" gradientTransform="matrix(1.1 0 0 -1.1 -173.54 350.53)" gradientUnits="userSpaceOnUse">
        <stop offset="0" stop-color="#fff"/>
        <stop offset=".4" stop-color="#8c8c8c"/>
        <stop offset=".69" stop-color="#f7f7f7"/>
      </radialGradient>
      <path fill="url(#SVGID_10_)" d="M246.3 54.7c-2.9-.8-6-1.2-9.2-1.2h-.8l-9.3 1.8.3.2c.9.8 1.8 1.6 2.6 2.4 2 2.2 3.4 4.7 4.1 7.3 1 3.6.6 6.6-1.3 8.9-1.9 2.3-4.8 3.3-8.6 2.9-3.8-.4-7.3-2-10.7-4.8-.5-.4-1-.8-1.4-1.2-.8-.8-1.6-1.6-2.2-2.4-.9 1.5-1.7 3-2.4 4.6a31.2 31.2 0 0 0-2.4 11.9c.5-.3 1.1-.5 1.6-.8.6-.2 1.1-.4 1.7-.7 3.5-1.1 6.9-1.4 10.1-.7 3.7.8 6.1 2.6 7.3 5.4 1.1 2.8.6 5.8-1.5 8.9-2 3.2-5.1 5.6-9.1 7.2l-.1.1c-1 .4-2 .7-3.2.9.8 1.1 1.8 2.1 2.8 3.1 1.1 1.1 2.2 2 3.3 2.9l2.2 1.6c2.1 1.4 4.3 2.4 6.6 3.2-.1-1-.1-1.9-.1-2.7v-.8c.1-4.1 1.2-7.7 3.2-10.6 2.2-3.1 4.8-4.7 7.8-4.7s5.6 1.6 7.8 4.7c2 2.9 3.1 6.4 3.2 10.5 0 .3.1.6.1.9 0 .9-.1 1.8-.1 2.6 4.4-1.5 8.4-4.1 11.9-7.6 1-1 1.8-1.9 2.6-3-.9-.2-1.7-.4-2.6-.7l-.9-.3c-3.8-1.3-6.8-3.4-9-6.1-2.3-3-3-5.9-2.1-8.8.9-2.9 3.1-4.9 6.8-5.9 3.5-1.1 7.3-1 11.3.2.2 0 .3.1.5.2 1 .3 1.9.7 2.8 1.1-.1-6.7-2-12.6-5.7-17.7-.6 1-1.2 1.9-2 2.8-.1.1-.2.2-.2.3-2.8 3.4-6 5.7-9.6 6.7-3.6 1-6.6.6-9-1.3-2.3-1.9-3.3-4.8-3-8.6.3-3.4 1.7-6.7 4.1-9.8.2-.3.5-.6.8-.9-.1-.9.4-1.5 1-2m-9.2 21.2c.5 0 .9.2 1.3.5.4.4.7.9.7 1.4 0 .5-.2.9-.7 1.3-.4.4-.8.6-1.3.6s-1-.2-1.4-.6c-.4-.4-.6-.8-.6-1.3s.2-1 .6-1.4c.4-.3.9-.5 1.4-.5m7.8 5.6c.5 0 1 .2 1.4.5.4.4.6.9.6 1.4 0 .5-.2.9-.6 1.3a1.82 1.82 0 0 1-2.7 0c-.4-.4-.6-.8-.6-1.3s.2-1 .6-1.4c.3-.3.8-.5 1.3-.5m-1.4 9.8c.4.4.6.8.6 1.3s-.2 1-.6 1.3a1.82 1.82 0 0 1-2.7 0c-.4-.4-.6-.8-.6-1.3s.2-.9.6-1.3c.4-.4.8-.6 1.3-.6.6.1 1 .3 1.4.6m-15.8-9.2c.4-.4.9-.5 1.4-.5.5 0 .9.2 1.3.5.4.4.6.9.6 1.4 0 .5-.2.9-.6 1.3-.4.4-.8.6-1.3.6s-1-.2-1.4-.6c-.4-.4-.5-.8-.5-1.3-.1-.6.1-1 .5-1.4m4.5 12.5c-.5 0-.9-.2-1.4-.6-.4-.4-.5-.8-.5-1.3s.2-.9.5-1.3c.4-.4.9-.6 1.4-.6.5 0 1 .2 1.4.6.4.4.6.8.6 1.3s-.2 1-.6 1.3c-.4.4-.8.6-1.4.6z"/>
      <path d="M230.9 94c.4.4.9.6 1.4.6.5 0 1-.2 1.4-.6.4-.4.6-.8.6-1.3s-.2-.9-.6-1.3c-.4-.4-.8-.6-1.4-.6-.5 0-.9.2-1.4.6-.4.4-.5.8-.5 1.3-.1.5.1 1 .5 1.3m-1.8-12.5c-.5 0-1 .2-1.4.5-.4.4-.5.9-.5 1.4 0 .5.2.9.5 1.3.4.4.9.6 1.4.6.5 0 .9-.2 1.3-.6.4-.4.6-.8.6-1.3s-.2-1-.6-1.4c-.4-.3-.8-.5-1.3-.5m15 11.2c0-.5-.2-.9-.6-1.3a1.82 1.82 0 0 0-2.7 0c-.4.4-.6.8-.6 1.3s.2 1 .6 1.3c.4.4.8.6 1.3.6s1-.2 1.4-.6c.4-.3.6-.8.6-1.3m2.1-10.6c-.4-.4-.8-.5-1.4-.5-.5 0-.9.2-1.3.5-.4.4-.6.9-.6 1.4 0 .5.2.9.6 1.3.4.4.8.6 1.3.6s1-.2 1.4-.6a1.82 1.82 0 0 0 0-2.7m-7.8-5.6c-.4-.4-.8-.5-1.3-.5s-1 .2-1.4.5c-.4.4-.6.9-.6 1.4 0 .5.2.9.6 1.3.4.4.9.6 1.4.6.5 0 .9-.2 1.3-.6.4-.4.7-.8.7-1.3-.1-.6-.3-1-.7-1.4z" class="st22"/>
    </g>
  </g>
  <g id="wheel2" transform="matrix(1.1 0 0 1.1 158.5 47)">
    <g id="wheel_0_Layer0_0_FILL_1_">
      <path d="M265.5 57.3c-7.9-7.9-17.4-11.8-28.5-11.8s-20.6 3.9-28.5 11.8a40.6 40.6 0 0 0-8.8 12.9c-2 4.8-3 9.9-3 15.5 0 11.1 3.9 20.6 11.8 28.5 7.9 7.9 17.4 11.8 28.5 11.8s20.6-3.9 28.5-11.8c4.2-4.2 7.3-8.8 9.2-13.9 1.7-4.5 2.5-9.3 2.5-14.5.1-11.2-3.8-20.7-11.7-28.5m-19.2-2.6 1.8.6c4.3 1.5 8.3 4.1 11.8 7.6l2.9 3.2c.3.4.7.9.9 1.3 3.7 5.2 5.6 11.1 5.7 17.7v1.7c-.1 3.7-.8 7.2-2 10.5-1.1 3-2.8 5.8-4.9 8.3-.8 1-1.7 2-2.6 3a29.9 29.9 0 0 1-11.9 7.6c-3.4 1.2-7 1.8-10.9 1.8-3.4 0-6.6-.4-9.6-1.3-.4-.1-.8-.3-1.2-.4-2.3-.8-4.5-1.9-6.6-3.2l-2.2-1.6c-1.1-.9-2.2-1.8-3.3-2.9-1-1-1.9-2-2.8-3.1-.4-.5-.7-1-1.1-1.5-3.7-5.3-5.6-11.4-5.6-18.2v-.7c.1-4.3.9-8.2 2.4-11.9.7-1.6 1.5-3.1 2.4-4.6.3-.4.5-.8.8-1.2 1.1-1.6 2.4-3.1 3.8-4.5 3.2-3.2 6.7-5.5 10.5-7.1l.7-.2 1.6-.3 9.3-1.8h.8c3.3-.1 6.4.3 9.3 1.2z"/>
      <path d="M206.3 84.3c-.6.2-1.1.5-1.6.8v.7c0 6.9 1.8 12.9 5.6 18.2.4.5.7 1 1.1 1.5 1.2-.2 2.3-.5 3.2-.9.1 0 .1-.1.1-.1-.7-.8-1.3-1.5-1.8-2.3l-.1-.1c-3.3-4.8-5-10.2-5-16.4 0-.7 0-1.4.1-2.1-.5.3-1 .5-1.6.7m20.9-28.8-.3-.2-1.6.3-.7.2c-3.8 1.6-7.3 3.9-10.5 7.1-1.4 1.4-2.7 2.9-3.8 4.5-.3.4-.5.8-.8 1.2.7.9 1.4 1.7 2.2 2.4l1.2-1.8 3.4-4.1c2.8-2.9 6-5 9.4-6.4l.6-.2 3.3-.7c-.6-.7-1.4-1.5-2.4-2.3m9.8 62.6c3.9 0 7.6-.6 10.9-1.8.1-.8.1-1.7.1-2.6 0-.3 0-.6-.1-.9-3.4 1.4-7.1 2.1-11 2.1-3 0-5.9-.4-8.6-1.2-.8-.2-1.5-.5-2.3-.8v.8c0 .8 0 1.7.1 2.7.4.1.8.3 1.2.4 3.2.9 6.4 1.3 9.7 1.3m29.6-34c-.2-.1-.3-.1-.5-.2 0 .6.1 1.2.1 1.9v.9c-.1 3.4-.7 6.5-1.8 9.4-1.2 3.1-2.9 5.9-5.2 8.5l.9.3c.9.3 1.7.5 2.6.7 2.1-2.6 3.7-5.4 4.9-8.3 1.2-3.3 1.9-6.8 2-10.5v-1.7c-1.1-.4-2-.7-3-1m-18.5-28.8-1.8-.6c-.6.6-1.1 1.2-1.6 1.8-.3.3-.5.6-.8.9 1.1.2 2.1.5 3.1.9 3.9 1.4 7.4 3.6 10.6 6.8l2.6 2.8c.5.7 1 1.4 1.5 2.2.8-.9 1.4-1.8 2-2.8-.3-.4-.6-.9-.9-1.3l-2.9-3.2c-3.5-3.5-7.5-6-11.8-7.5z" class="st20"/>
      <radialGradient id="SVGID_11_" cx="67.98" cy="241.29" r="55.6" gradientTransform="matrix(1.1 0 0 -1.1 162.46 350.53)" gradientUnits="userSpaceOnUse">
        <stop offset="0" stop-color="#fff"/>
        <stop offset=".4" stop-color="#8c8c8c"/>
        <stop offset=".69" stop-color="#f7f7f7"/>
      </radialGradient>
      <path fill="url(#SVGID_11_)" d="M246.3 54.7c-2.9-.8-6-1.2-9.2-1.2h-.8l-9.3 1.8.3.2c.9.8 1.8 1.6 2.6 2.4 2 2.2 3.4 4.7 4.1 7.3 1 3.6.6 6.6-1.3 8.9-1.9 2.3-4.8 3.3-8.6 2.9-3.8-.4-7.3-2-10.7-4.8-.5-.4-1-.8-1.4-1.2-.8-.8-1.6-1.6-2.2-2.4-.9 1.5-1.7 3-2.4 4.6a31.2 31.2 0 0 0-2.4 11.9c.5-.3 1.1-.5 1.6-.8.6-.2 1.1-.4 1.7-.7 3.5-1.1 6.9-1.4 10.1-.7 3.7.8 6.1 2.6 7.3 5.4 1.1 2.8.6 5.8-1.5 8.9-2 3.2-5.1 5.6-9.1 7.2l-.1.1c-1 .4-2 .7-3.2.9.8 1.1 1.8 2.1 2.8 3.1 1.1 1.1 2.2 2 3.3 2.9l2.2 1.6c2.1 1.4 4.3 2.4 6.6 3.2-.1-1-.1-1.9-.1-2.7v-.8c.1-4.1 1.2-7.7 3.2-10.6 2.2-3.1 4.8-4.7 7.8-4.7s5.6 1.6 7.8 4.7c2 2.9 3.1 6.4 3.2 10.5 0 .3.1.6.1.9 0 .9-.1 1.8-.1 2.6 4.4-1.5 8.4-4.1 11.9-7.6 1-1 1.8-1.9 2.6-3-.9-.2-1.7-.4-2.6-.7l-.9-.3c-3.8-1.3-6.8-3.4-9-6.1-2.3-3-3-5.9-2.1-8.8.9-2.9 3.1-4.9 6.8-5.9 3.5-1.1 7.3-1 11.3.2.2 0 .3.1.5.2 1 .3 1.9.7 2.8 1.1-.1-6.7-2-12.6-5.7-17.7-.6 1-1.2 1.9-2 2.8-.1.1-.2.2-.2.3-2.8 3.4-6 5.7-9.6 6.7-3.6 1-6.6.6-9-1.3-2.3-1.9-3.3-4.8-3-8.6.3-3.4 1.7-6.7 4.1-9.8.2-.3.5-.6.8-.9-.1-.9.4-1.5 1-2m-9.2 21.2c.5 0 .9.2 1.3.5.4.4.7.9.7 1.4 0 .5-.2.9-.7 1.3-.4.4-.8.6-1.3.6s-1-.2-1.4-.6c-.4-.4-.6-.8-.6-1.3s.2-1 .6-1.4c.4-.3.9-.5 1.4-.5m7.8 5.6c.5 0 1 .2 1.4.5.4.4.6.9.6 1.4 0 .5-.2.9-.6 1.3a1.82 1.82 0 0 1-2.7 0c-.4-.4-.6-.8-.6-1.3s.2-1 .6-1.4c.3-.3.8-.5 1.3-.5m-1.4 9.8c.4.4.6.8.6 1.3s-.2 1-.6 1.3a1.82 1.82 0 0 1-2.7 0c-.4-.4-.6-.8-.6-1.3s.2-.9.6-1.3c.4-.4.8-.6 1.3-.6.6.1 1 .3 1.4.6m-15.8-9.2c.4-.4.9-.5 1.4-.5.5 0 .9.2 1.3.5.4.4.6.9.6 1.4 0 .5-.2.9-.6 1.3-.4.4-.8.6-1.3.6s-1-.2-1.4-.6c-.4-.4-.5-.8-.5-1.3-.1-.6.1-1 .5-1.4m4.5 12.5c-.5 0-.9-.2-1.4-.6-.4-.4-.5-.8-.5-1.3s.2-.9.5-1.3c.4-.4.9-.6 1.4-.6.5 0 1 .2 1.4.6.4.4.6.8.6 1.3s-.2 1-.6 1.3c-.4.4-.8.6-1.4.6z"/>
      <path d="M230.9 94c.4.4.9.6 1.4.6.5 0 1-.2 1.4-.6.4-.4.6-.8.6-1.3s-.2-.9-.6-1.3c-.4-.4-.8-.6-1.4-.6-.5 0-.9.2-1.4.6-.4.4-.5.8-.5 1.3-.1.5.1 1 .5 1.3m-1.8-12.5c-.5 0-1 .2-1.4.5-.4.4-.5.9-.5 1.4 0 .5.2.9.5 1.3.4.4.9.6 1.4.6.5 0 .9-.2 1.3-.6.4-.4.6-.8.6-1.3s-.2-1-.6-1.4c-.4-.3-.8-.5-1.3-.5m15 11.2c0-.5-.2-.9-.6-1.3a1.82 1.82 0 0 0-2.7 0c-.4.4-.6.8-.6 1.3s.2 1 .6 1.3c.4.4.8.6 1.3.6s1-.2 1.4-.6c.4-.3.6-.8.6-1.3m2.1-10.6c-.4-.4-.8-.5-1.4-.5-.5 0-.9.2-1.3.5-.4.4-.6.9-.6 1.4 0 .5.2.9.6 1.3.4.4.8.6 1.3.6s1-.2 1.4-.6a1.82 1.82 0 0 0 0-2.7m-7.8-5.6c-.4-.4-.8-.5-1.3-.5s-1 .2-1.4.5c-.4.4-.6.9-.6 1.4 0 .5.2.9.6 1.3.4.4.9.6 1.4.6.5 0 .9-.2 1.3-.6.4-.4.7-.8.7-1.3-.1-.6-.3-1-.7-1.4z" class="st22"/>
    </g>
  </g>
  <g transform="translate(-49.1 -16)">
    <g id="door_handle_0_Layer0_0_FILL">
      <radialGradient id="SVGID_12_" cx="-66.61" cy="93.9" r="7.1" fx="-66.61" fy="90.56" gradientTransform="matrix(0 -1 -1 0 356.28 28.33)" gradientUnits="userSpaceOnUse">
        <stop offset="0" stop-opacity=".15"/>
        <stop offset="1" stop-opacity=".5"/>
      </radialGradient>
      <path fill="url(#SVGID_12_)" d="M262.2 99.8c1.9 0 3.5-.5 4.8-1.6.7-.5 1.2-1.1 1.5-1.8h-12.6c.3.7.8 1.3 1.5 1.8 1.4 1.1 3 1.6 4.8 1.6m6.3-7.7-.2-.2-1.3-1.5c-1.3-1.1-2.9-1.6-4.8-1.6s-3.5.5-4.8 1.6l-1.3 1.5-.1.2h12.5z"/>
      <path fill-opacity=".5" d="M268.6 96.4h1.8c.6 0 1.1-.2 1.5-.7l.5-.8H249l.5.8c.4.4.9.7 1.6.7h17.5m3.5-3.5-.2-.2c-.4-.4-.9-.6-1.5-.6h-19.3c-.6 0-1.1.2-1.6.6l-.2.2h22.8z"/>
      <path fill-opacity=".1" d="M272.5 94.2c0-.5-.1-.9-.4-1.3h-22.8c-.3.4-.4.8-.4 1.3l.1.7h23.4l.1-.7z"/>
    </g>
  </g>
  <g id="shading_and_lights_0_Layer2_0_FILL">
    <path fill="red" d="m41.8 77.8-1.1-2.4.6 1.4v.2l.5.8z"/>
    <path fill="#750202" d="M14.4 81.4v.6l29.4 1-.6-1.6H14.4z"/>
    <path fill="#b80303" d="M14.4 73.3c-.1.8-.1.8-.2-.1l.2 8.2h28.9l-.2-.4-1.3-3.2-.4-.8v-.2l-.6-1.4c-.2-.5-.4-1-.6-1.4-9.4.5-18 .3-25.8-.7z"/>
    <radialGradient id="SVGID_13_" cx="260.73" cy="305.66" r="15.1" gradientTransform="matrix(1 0 0 -1 -233.5 375.7)" gradientUnits="userSpaceOnUse">
      <stop offset="0" stop-color="red"/>
      <stop offset="1" stop-color="#b80505"/>
    </radialGradient>
    <path fill="url(#SVGID_13_)" d="m15.6 64.2-.1.4c-.6 2.3-.9 4.8-1 7.3l-.1 1.2c7.8 1 16.4 1.2 25.7.7-1-2.6-1.8-5.2-2.3-7.9l-.6-2.9c-5.2-.3-12.4.1-21.6 1.2z"/>
    <path fill="#a70303" d="M17 60.8c-.6 1.1-1.1 2.3-1.4 3.4 9.2-1.2 16.4-1.5 21.7-1L36 53.7l-11.9 1c-2.6 1-4.8 2.6-6.5 5l-.6 1.1z"/>
    <radialGradient id="SVGID_14_" cx="260.73" cy="305.66" r="84.7" gradientTransform="matrix(1 0 0 -1 226.7 482)" gradientUnits="userSpaceOnUse">
      <stop offset="0"/>
      <stop offset="1"/>
    </radialGradient>
    <path fill="url(#SVGID_14_)" d="m513.6 147.3.4.1.5-6.4c-.6 2.5-2.5 3.8-5.8 3.9-4-.2-6.8-.2-8.4.1 1.4 1.1 3 1.7 4.9 1.8l8.4.5z"/>
    <radialGradient id="SVGID_15_" cx="260.73" cy="305.66" r="84.7" gradientTransform="matrix(1 0 0 -1 226.7 482)" gradientUnits="userSpaceOnUse">
      <stop offset="0" stop-color="#848484"/>
      <stop offset="1"/>
    </radialGradient>
    <path fill="url(#SVGID_15_)" d="m515.1 134.5-1-.1v6h.5l.5-5.9z"/>
    <radialGradient id="SVGID_16_" cx="260.73" cy="305.66" r="12.8" gradientTransform="matrix(1 0 0 -1 243 447.6)" gradientUnits="userSpaceOnUse">
      <stop offset="0" stop-color="#515151"/>
      <stop offset="1"/>
    </radialGradient>
    <path fill="url(#SVGID_16_)" d="M510.3 134.3c-2.8 0-4.8.3-6 1-.8.4-1.6 1.3-2.6 2.8-.6.9-1.1 1.8-1.4 2.7l-1 2.7 1.1 1.5c1.6-.3 4.4-.4 8.4-.1 3.3-.2 5.2-1.5 5.8-3.9v-.4h-.5v-6l-3.8-.3z"/>
    <radialGradient id="SVGID_17_" cx="260.73" cy="305.66" r="16.8" gradientTransform="matrix(1 0 0 -1 238.4 437.2)" gradientUnits="userSpaceOnUse">
      <stop offset="0"/>
      <stop offset="1" stop-color="#484848"/>
    </radialGradient>
    <path fill="url(#SVGID_17_)" d="M504.3 135.3c1.2-.6 3.2-1 6-1l3.8.2 1 .1.5-6.4-20.8-.2.1 2.9c.2 2.3.5 4.4 1.1 6.4.8 2.8 1.8 5 3.1 6.6l1.3 1.3-1.1-1.5 1-2.7c.3-.9.8-1.8 1.4-2.7 1-1.7 1.9-2.6 2.6-3z"/>
    <radialGradient id="SVGID_18_" cx="260.73" cy="305.66" r="20.55" fx="272.82" fy="305.66" gradientTransform="matrix(1 0 0 -1 225.75 406.3)" gradientUnits="userSpaceOnUse">
      <stop offset="0" stop-color="#fff"/>
      <stop offset="1" stop-color="#959595"/>
    </radialGradient>
    <path fill="url(#SVGID_18_)" d="M483.2 94.4c-.5.5-.7 1.2-.5 2 0-.5.2-1.2.5-2m13 2c.2 1.6 0 2.9-.7 4.1-.4.6-1.2 1.3-2.4 2-1.1.7-2.6 1.4-4.4 2.2h-.1v.1c3.4-.2 5.6-.2 6.6.1-.7-1.4 0-2.2 2.2-2.4l5.1.3c-.7-1.6-1.5-2.8-2.5-3.7-.8-.9-2.1-1.8-3.8-2.7m-11.1-3.6 3.5.9c1.4.7 2.2 2.6 2.2 5.7l-.2 3c-.3 1.1-.9 1.9-1.9 2.4 1.8-.8 3.3-1.5 4.4-2.2l.1-3.2c0-1.3-1.6-3.6-4.6-6.8 4.2 1.8 6.7 3.1 7.6 3.9 1.6.9 2.9 1.8 3.9 2.7 1 .9 1.8 2.1 2.5 3.7 1.2.5 2.2 1.8 3 4.2h-8.2c-1.2-1-1.9-1.7-2.1-2.1-1-.3-3.2-.3-6.6-.1l-.2 2.4 19.2 1.6c-.7-3.8-2.9-7.4-6.5-10.7h-.1c-2.7-2.4-6.1-4.7-10.4-6.8-3.2-1.6-6.6-2.9-10.2-4.2l-4.5-1.3 9.5 19.6 1.8-.8v-2.9c.1-.9.4-1.6.9-2 1-1.4 1.3-2.2.9-2.7l-1.2-1.5-1.8 1.7c-.4.4-.9 1.1-1.2 2.2.4-1.1.8-1.8 1.2-2.2l1.8-1.7c-.3 0 0-.7 1-1.9-3.2.5-4.9 2-5.1 4.4-.3 2.4-.6 1.9-.9-1.7-.1-.8 0-1.5.5-2-.7-.5-2.3-2.5-4.9-5.9 5 1.1 7.3 2.6 6.6 4.3z"/>
    <radialGradient id="SVGID_19_" cx="260.73" cy="305.66" r="819.2" gradientTransform="matrix(1 0 0 -1 -400 270)" gradientUnits="userSpaceOnUse">
      <stop offset="0" stop-color="#fff"/>
      <stop offset="1" stop-color="#959595"/>
    </radialGradient>
    <path fill="url(#SVGID_19_)" d="M488.8 104.7c1-.5 1.6-1.3 1.9-2.4l.2-3c0-3.1-.7-5-2.2-5.7-1 1.2-1.4 1.9-1 1.9l1.2 1.5c.5.4.2 1.3-.9 2.7l.6 5.2v-.1l.2-.1m8.7-2.2c-2.2.1-2.9.9-2.2 2.4.2.4.9 1.1 2.1 2.1h8.2c-.8-2.3-1.8-3.7-3-4.2l-5.1-.3m-14.2-8.2 1.9-1.5c.7-1.7-1.6-3.1-6.9-4.2 2.6 3.4 4.2 5.3 4.9 5.9l.1-.2z"/>
    <path fill="#fff" d="m487.1 104.6-1.8.8.8 1.7 2.2.2.2-2.4-.6-5.2c-.4.4-.7 1.1-.9 2 .1.5 0 1.5.1 2.9z"/>
    <path fill="#d0d0d0" d="M495.5 100.5c.7-1.1.9-2.5.7-4.1-.9-.8-3.4-2.1-7.6-3.9 3 3.2 4.5 5.4 4.6 6.8l-.1 3.2c1.2-.7 2-1.4 2.4-2z"/>
    <radialGradient id="SVGID_20_" cx="260.73" cy="305.66" r="819.2" gradientTransform="matrix(1 0 0 -1 -400 270)" gradientUnits="userSpaceOnUse">
      <stop offset="0" stop-color="#fff"/>
      <stop offset="1" stop-color="#fff"/>
    </radialGradient>
    <path fill="url(#SVGID_20_)" d="m488.7 93.6-3.5-.9-1.9 1.5-.1.1c-.3.8-.5 1.5-.5 2 .3 3.6.6 4.1.9 1.7.2-2.3 1.9-3.8 5.1-4.4z"/>
  </g>
  <path id="shading_and_lights_0_Layer2_0_1_STROKES" fill="none" stroke="#ccc" stroke-miterlimit="3" stroke-width=".05" d="M483.2 94.4c-.3.8-.5 1.5-.5 2 .3 3.6.6 4.1.9 1.7.3-2.4 2-3.9 5.1-4.4l-3.5-.9-1.9 1.5-.1.1z"/>
  <path id="shading_and_lights_0_Layer2_0_2_STROKES" fill="none" stroke="#ccc" stroke-linecap="square" stroke-miterlimit="3" stroke-width=".05" d="M483.2 94.4c-.7-.5-2.3-2.5-4.9-5.9 5.2 1.1 7.5 2.5 6.9 4.2m1.9 11.9v-2.9c.1-.9.4-1.6.9-2 1-1.4 1.3-2.2.9-2.7l-1.2-1.5-1.8 1.7c-.4.4-.9 1.1-1.2 2.2m11.5-3c.2 1.6 0 2.9-.7 4.1-.4.6-1.2 1.3-2.4 2-1.1.7-2.6 1.4-4.4 2.2h-.1v.1c3.4-.2 5.6-.2 6.6.1-.7-1.4 0-2.2 2.2-2.4l5.1.3c-.7-1.6-1.5-2.8-2.5-3.7-.8-.9-2.1-1.8-3.8-2.7-.9-.8-3.4-2.1-7.6-3.9 3 3.2 4.5 5.4 4.6 6.8l-.1 3.2m-4.4-8.9c1.4.7 2.2 2.6 2.2 5.7l-.2 3c-.3 1.1-.9 1.9-1.9 2.4m-.2.1h0l-.6-5.2m14.6 3.2c1.2.5 2.2 1.8 3 4.2h-8.2c-1.2-1-1.9-1.7-2.1-2.1m-12.1-10.5c-.5.5-.7 1.2-.5 2m4.9-.9c-.3 0 0-.7 1-1.9"/>
  <path id="shading_and_lights_0_Layer2_0_3_STROKES" fill="none" stroke="#1e1e1e" stroke-linecap="square" stroke-miterlimit="3" stroke-width="2" d="M514.1 140.5v-5.2"/>
  <path id="shading_and_lights_0_Layer2_0_4_STROKES" fill="none" stroke="#770606" stroke-linecap="square" stroke-miterlimit="3" stroke-opacity=".4" stroke-width=".1" d="m37.3 63.2.6 2.9c.5 2.7 1.3 5.3 2.3 7.9m2.9 7-1.3-3.2m-27.4-4.5-.2-.1.2 8.2h28.9l-.2-.4m-1.3-3.2-.4-.8v-.2l-.6-1.4m-.7-1.4c-9.3.5-17.9.3-25.7-.7"/>
  <path id="shading_and_lights_0_Layer2_0_5_STROKES" fill="none" stroke="#770606" stroke-linecap="square" stroke-miterlimit="3" stroke-width=".1" d="m36 53.7 1.2 9.5"/>
  <path id="shading_and_lights_0_Layer2_0_6_STROKES" fill="none" stroke="#1e1e1e" stroke-linecap="square" stroke-miterlimit="3" stroke-opacity=".4" stroke-width=".1" d="M40.1 74c.2.5.4 1 .6 1.4l1.1 2.4"/>
  <path id="shading_and_lights_0_Layer2_0_7_STROKES" fill="none" stroke="#1e1e1e" stroke-linecap="square" stroke-miterlimit="3" stroke-opacity=".2" stroke-width=".1" d="m43.1 81 11.3 26"/>
  <g id="shading_and_lights_0_Layer1_0_FILL">
    <linearGradient id="SVGID_21_" x1="256.82" x2="260.57" y1="220.8" y2="286.47" gradientTransform="matrix(1 0 0 -1 0 400)" gradientUnits="userSpaceOnUse">
      <stop offset="0"/>
      <stop offset="1" stop-opacity="0"/>
    </linearGradient>
    <path fill="url(#SVGID_21_)" d="M43.2 118.2c2.9-5.9 6.8-10.7 11.7-14.3a81.76 81.76 0 0 1-49.9 0l-.9 1.5-1.5 14 2.6 15c.5 3.1 1.2 5.4 2.1 6.9 6 10.6 16.4 15.7 31.1 15.5l-.1-16.3c-.4-7.4 1.2-14.8 4.9-22.3M517.3 129l-.6-9.3c-1.6-4.7-4.2-9.7-7.9-15.1l-60.9-.1c13.8 10.1 19.7 28.3 17.6 54.4l38.8-.1 2.9-.8c5.2-1.8 7.8-3.7 8-5.5.1-1.9.5-6.4 1.2-13.5l.9-10z"/>
    <linearGradient id="SVGID_22_" x1="248.61" x2="252.38" y1="221.7" y2="288.25" gradientTransform="matrix(1 0 0 -1 0 400)" gradientUnits="userSpaceOnUse">
      <stop offset="0" stop-opacity=".71"/>
      <stop offset="1" stop-opacity="0"/>
    </linearGradient>
    <path fill="url(#SVGID_22_)" d="M373.2 141c.7-3.8 1.6-7.5 2.8-11.3 3.6-11.3 9-19.7 16.4-25.2-94.1-7.3-187.1-7.5-279.2-.4 5.7 4.4 10.1 10.5 13.4 18.3 1.9 4.5 3.3 9.4 4.2 14.7.4 2.3.7 4.7 1 7.1.5 5.9.5 11.1-.1 15.8l240-.9c-.1-6.1.4-12.1 1.5-18.1z"/>
  </g>
  <g id="shading_and_lights_0_Layer0_0_FILL">
    <radialGradient id="SVGID_23_" cx="260.73" cy="305.66" r="92.85" gradientTransform="matrix(1 0 0 -1 225.6 486)" gradientUnits="userSpaceOnUse">
      <stop offset="0" stop-color="#515151"/>
      <stop offset="1"/>
    </radialGradient>
    <path fill="url(#SVGID_23_)" d="m515.9 142.8 1.2-15.3-22.8-.2.1 3.2c.2 2.5.6 4.9 1.2 7 .5 1.9 1.1 3.5 1.9 4.9 2 3.7 4.7 5.6 8.3 5.8l9.2.5h.4l.5-5.9z"/>
    <linearGradient id="SVGID_24_" x1="494.78" x2="494.78" y1="233.91" y2="258.91" gradientTransform="matrix(1 0 0 -1 0 400)" gradientUnits="userSpaceOnUse">
      <stop offset="0" stop-color="#fff" stop-opacity=".39"/>
      <stop offset="1" stop-color="#fff" stop-opacity="0"/>
    </linearGradient>
    <path fill="url(#SVGID_24_)" d="m520.1 142.9-4.2-.1-.5 5.8h-.4l-9.2-.5c-3.6-.1-6.4-2.1-8.3-5.8l-28.1-.8c1.9 3.5 5.7 6.5 11.3 9L520 152v-9.1z"/>
    <linearGradient id="SVGID_25_" x1="256.68" x2="256.68" y1="240.66" y2="265.66" gradientTransform="matrix(1 0 0 -1 0 400)" gradientUnits="userSpaceOnUse">
      <stop offset="0" stop-color="#fff" stop-opacity=".39"/>
      <stop offset="1" stop-color="#fff" stop-opacity="0"/>
    </linearGradient>
    <path fill="url(#SVGID_25_)" d="M370.7 140.6h-9c-.4 2.8-.8 5.6-1.4 8.4l8.4.2 2-8.6M191.2 144l12.7.6-2.4-9.4-58.8-1.6c1.9 3.5 5.7 6.5 11.3 9l7.8.7c8 .4 17.9.7 29.4.7m12.7.6 23.7 1.2c21 .4 42 .9 62.9 1.5l69.8 1.8c.5-2.8 1-5.6 1.4-8.4-10.3-.1-20.4-.8-30.3-1.9l-129.8-3.6c.6 3.1 1.4 6.3 2.3 9.4z"/>
    <linearGradient id="SVGID_26_" x1="185.83" x2="185.83" y1="458.56" y2="338.76" gradientTransform="matrix(1 0 0 -1 0 400)" gradientUnits="userSpaceOnUse">
      <stop offset="0" stop-opacity=".4"/>
      <stop offset="1" stop-opacity="0"/>
    </linearGradient>
    <path fill="url(#SVGID_26_)" d="M193.9 57.6v.4l2.8-.2-2.8-.2m126.6-31.1-4.1-2.1c-23-12.1-43.2-18.7-60.4-19.6-17.2-1-41-1.6-71.3-1.8-30.3-.3-55.1.2-74.3 1.3l-37 2.8-16.4.3-4.4 1.2c-2.4 1.2-2.7 2.8-.8 4.8l4.9 1.8-6.7 6.2c-5.3 5.2-10.2 10.2-14.7 15.1L20.2 55.9l-1.1 1.7-.1.1v.1h16.8l-.1 1.2c.4 1.5 3.4 1.9 8.8 1.2l67.6 2.6 81.8-4.8v-.4l-1.2-.1c-40.5-4.1-67.9-7.1-82.1-9.1-8.9-1.2-14.2-4.4-16.1-9.4-.6-1.6-.8-3.3-.6-5.1l.5-2.2 5-9.7c3.6-6.7 6.2-10.8 7.6-12.3 1.4-1.5 15.1-2.5 41-3.1l31.6-.4 35.6 1.4 45.4 2.7c9.5.8 24.1 6.3 44 16.6 10 5.2 19 10.2 27 15.2l1 6.9c-1.9-.1-3.4 1.1-4.4 3.5-.5 1.2-.9 2.4-1 3.6l-.1 1.7h25.6c-13.9-15-24.6-25.4-32.2-31.3z"/>
    <radialGradient id="SVGID_27_" cx="260.73" cy="253.19" r="293.7" gradientTransform="matrix(1 0 0 -.586 22.95 303.48)" gradientUnits="userSpaceOnUse">
      <stop offset="0" stop-color="#fff" stop-opacity=".3"/>
      <stop offset="1" stop-color="#fff" stop-opacity="0"/>
    </radialGradient>
    <path fill="url(#SVGID_27_)" d="M44.5 60.2c-5.4.7-8.4.3-8.8-1.2-.4 5.3-.9 9.9-1.5 13.8-16.8 21.6-15.5 31.7 4 30.5 1.5 2.3 2.6 4.5 3.1 6.8 1.7-2.3 3.5-4.6 5.6-6.7 10.2-10.1 22.4-15.2 36.8-15.2 14.4 0 26.6 5.1 36.8 15.2 1.1 1.1 3.1 2.2 6.1 3.4 7.2-10.9 17.8-16.4 31.8-16.5 18.6-.1 27.4.1 26.4.6l9.6-.6c-.6-8.3-.9-16.6-.8-24.8L112 62.7l-67.5-2.5m275.7-33.9.2.2c7.6 5.9 18.4 16.3 32.2 31.3 3.6 4.4 6.8 8.9 9.6 13.5l-168.6-5.8c-.1 8.3.1 16.6.8 24.8 17.2-.8 34.4-1 51.5-.5l105.4 2.6c3.8.1 7.7.3 11.4.7 3.3.4 6.7.9 10 1.5 3.6.8 6.8 2.2 9.6 4.2l5.2 4.2c11.9-10 25.6-13.5 41.4-10.6a75 75 0 0 1 35.3 17.5c5.2 4.5 11.1 7.4 17.9 8.8 11.4 2.3 23 2.6 34.6.9-3.1-8.7-7.5-16-13.3-22.1-6-6.4-13.5-11.3-22.4-14.8l-3.9-1.6c-13.5-5.1-27.3-9-41.5-11.6l-13.8-2.7c-13.2-2.6-26.4-5.4-39.4-8.4l-2.6-1.5-2.8-.1-5.3-3-3.6-.6h-.1L343.9 39l-23.7-12.7z"/>
  </g>
  <path id="shading_and_lights_0_Layer0_0_1_STROKES" fill="none" stroke="#000" stroke-miterlimit="3" stroke-opacity=".35" stroke-width=".1" d="M359.7 72.8c1.3 6.8 2.3 13.6 3 20.4 1.5 15.8 1.2 31.6-1 47.4-.4 2.8-.8 5.7-1.4 8.5l-.6 3.2"/>
  <path id="shading_and_lights_0_Layer0_0_2_STROKES" fill="none" stroke="#000" stroke-miterlimit="3" stroke-opacity=".26" stroke-width=".1" d="M193.7 65.6c-.1 8.3.1 16.6.8 24.8 1.1 14.9 3.5 29.8 7.1 44.8M194 56.3c0 .4 0 .9-.1 1.3v.4c-.1 2.5-.2 5.1-.2 7.6m10.3 79c-.9-3.1-1.7-6.3-2.5-9.4"/>
</svg>
