
<svg xmlns="http://www.w3.org/2000/svg" version="1.1" xmlns:xlink="http://www.w3.org/1999/xlink" preserveAspectRatio="none" x="0px" y="0px" width="264px" height="264px" viewBox="0 0 264 264">
<defs>
<g id="Layer0_0_FILL">
<path fill="#FFFFFF" stroke="none" d="
M 225.7 269.55
Q 210.1 269.55 199.1 280.55 188.1 291.55 188.1 307.15 188.1 322.75 199.1 333.75 210.1 344.75 225.7 344.75 241.3 344.75 252.3 333.75 263.3 322.75 263.3 307.15 263.3 291.55 252.3 280.55 241.3 269.55 225.7 269.55 Z"/>
</g>

<g id="Layer0_1_FILL">
<path fill="#FFFFFF" stroke="none" d="
M 225.7 269.55
Q 210.1 269.55 199.1 280.55 188.1 291.55 188.1 307.15 188.1 322.75 199.1 333.75 210.1 344.75 225.7 344.75 241.3 344.75 252.3 333.75 263.3 322.75 263.3 307.15 263.3 291.55 252.3 280.55 241.3 269.55 225.7 269.55 Z"/>
</g>

<g id="Layer0_2_FILL">
<path fill="#FFFFFF" stroke="none" d="
M 225.7 269.55
Q 210.1 269.55 199.1 280.55 188.1 291.55 188.1 307.15 188.1 322.75 199.1 333.75 210.1 344.75 225.7 344.75 241.3 344.75 252.3 333.75 263.3 322.75 263.3 307.15 263.3 291.55 252.3 280.55 241.3 269.55 225.7 269.55 Z"/>
</g>

<g id="Layer0_3_FILL">
<path fill="#FFFFFF" stroke="none" d="
M 225.7 269.55
Q 210.1 269.55 199.1 280.55 188.1 291.55 188.1 307.15 188.1 322.75 199.1 333.75 210.1 344.75 225.7 344.75 241.3 344.75 252.3 333.75 263.3 322.75 263.3 307.15 263.3 291.55 252.3 280.55 241.3 269.55 225.7 269.55 Z"/>
</g>

<g id="Layer0_4_FILL">
<path fill="#FFFFFF" stroke="none" d="
M 225.7 269.55
Q 210.1 269.55 199.1 280.55 188.1 291.55 188.1 307.15 188.1 322.75 199.1 333.75 210.1 344.75 225.7 344.75 241.3 344.75 252.3 333.75 263.3 322.75 263.3 307.15 263.3 291.55 252.3 280.55 241.3 269.55 225.7 269.55 Z"/>
</g>

<g id="Layer0_5_FILL">
<path fill="#FFFFFF" stroke="none" d="
M 225.7 269.55
Q 210.1 269.55 199.1 280.55 188.1 291.55 188.1 307.15 188.1 322.75 199.1 333.75 210.1 344.75 225.7 344.75 241.3 344.75 252.3 333.75 263.3 322.75 263.3 307.15 263.3 291.55 252.3 280.55 241.3 269.55 225.7 269.55 Z"/>
</g>

<g id="Layer0_6_FILL">
<path fill="#FFFFFF" stroke="none" d="
M 225.7 269.55
Q 210.1 269.55 199.1 280.55 188.1 291.55 188.1 307.15 188.1 322.75 199.1 333.75 210.1 344.75 225.7 344.75 241.3 344.75 252.3 333.75 263.3 322.75 263.3 307.15 263.3 291.55 252.3 280.55 241.3 269.55 225.7 269.55 Z"/>
</g>

<g id="Layer0_7_FILL">
<path fill="#FFFFFF" stroke="none" d="
M 225.7 269.55
Q 210.1 269.55 199.1 280.55 188.1 291.55 188.1 307.15 188.1 322.75 199.1 333.75 210.1 344.75 225.7 344.75 241.3 344.75 252.3 333.75 263.3 322.75 263.3 307.15 263.3 291.55 252.3 280.55 241.3 269.55 225.7 269.55 Z"/>
</g>

<g id="Layer0_8_FILL">
<path fill="#FFFFFF" stroke="none" d="
M 225.7 269.55
Q 210.1 269.55 199.1 280.55 188.1 291.55 188.1 307.15 188.1 322.75 199.1 333.75 210.1 344.75 225.7 344.75 241.3 344.75 252.3 333.75 263.3 322.75 263.3 307.15 263.3 291.55 252.3 280.55 241.3 269.55 225.7 269.55 Z"/>
</g>
</defs>

<g transform="matrix( 1, 0, 0, 1, -186.7,-268.15) ">
<use xlink:href="#Layer0_0_FILL"/>
</g>

<g transform="matrix( 1, 0, 0, 1, -93.7,-268.15) ">
<use xlink:href="#Layer0_1_FILL"/>
</g>

<g transform="matrix( 1, 0, 0, 1, -0.7,-268.15) ">
<use xlink:href="#Layer0_2_FILL"/>
</g>

<g transform="matrix( 1, 0, 0, 1, -186.7,-175.15) ">
<use xlink:href="#Layer0_3_FILL"/>
</g>

<g transform="matrix( 1, 0, 0, 1, -93.7,-175.15) ">
<use xlink:href="#Layer0_4_FILL"/>
</g>

<g transform="matrix( 1, 0, 0, 1, -0.7,-175.15) ">
<use xlink:href="#Layer0_5_FILL"/>
</g>

<g transform="matrix( 1, 0, 0, 1, -186.7,-82.15) ">
<use xlink:href="#Layer0_6_FILL"/>
</g>

<g transform="matrix( 1, 0, 0, 1, -93.7,-82.15) ">
<use xlink:href="#Layer0_7_FILL"/>
</g>

<g transform="matrix( 1, 0, 0, 1, -0.7,-82.15) ">
<use xlink:href="#Layer0_8_FILL"/>
</g>
</svg>
